<?xml version="1.0" standalone="no"?>
<!DOCTYPE svg PUBLIC "-//W3C//DTD SVG 1.1//EN" "http://www.w3.org/Graphics/SVG/1.1/DTD/svg11.dtd" >
<svg>
<metadata>
Created by FontForge 20110222 at Thu Apr 10 06:04:41 2014
 By Orthosie Webhosting
Copyright [c] 1994-2009 Luc(as) de Groot, published by LucasFonts.
</metadata>
<defs>
<font id="TheSansOffice-Regular" horiz-adv-x="550" >
  <font-face 
    font-family="TheSansOffice"
    font-weight="400"
    font-stretch="normal"
    units-per-em="1000"
    panose-1="2 11 5 3 4 3 2 6 2 4"
    ascent="740"
    descent="-260"
    x-height="497"
    cap-height="675"
    bbox="-62 -316.897 1079.54 918"
    underline-thickness="68"
    underline-position="-147"
    unicode-range="U+000D-FB04"
  />
<missing-glyph 
d="M150 150v250h50v-200h100v-50h-150zM50 50v450h450v-450h-450zM250 350v50h150v-250h-50v100h-100v50h100v50h-100zM450 100v350h-350v-350h350z" />
    <glyph glyph-name="f_b" unicode="fb" horiz-adv-x="889" 
d="M845 272q0 -66 -18 -118t-51.5 -87.5t-81 -54.5t-106.5 -19q-54 0 -92.5 4.5t-77.5 15.5v647q-23 4 -44.5 5.5t-43.5 1.5q-69 0 -101.5 -28.5t-32.5 -91.5v-50h138v-66h-138v-431h-85v431h-104v66h104v58q0 84 55 132.5t172 48.5q38 0 80.5 -4t84.5 -10v-237
q0 -21 -2 -47t-7 -45l2 -1q20 54 64.5 84t101.5 30q88 0 135.5 -59.5t47.5 -174.5zM755 264q0 82 -27 127t-85 45q-35 0 -61.5 -18.5t-44 -47t-26 -63t-8.5 -67.5v-167q20 -7 42 -9.5t49 -2.5q36 0 66 11.5t51 36t32.5 63t11.5 92.5z" />
    <glyph glyph-name="f_f" unicode="ff" horiz-adv-x="651" 
d="M678 656q-38 11 -75 11q-54 0 -79 -32t-25 -100v-38h140v-66h-140v-431h-85v431h-218v-431h-85v431h-104v66h104v25q0 40 10.5 77t35.5 65.5t67 45.5t104 17q39 0 78 -6.5t74 -20.5q47 36 124 36q40 0 81 -9zM435 636q-29 13 -57 17.5t-54 4.5q-67 0 -97.5 -32t-30.5 -95
v-34h218v36q0 62 21 103z" />
    <glyph glyph-name="f_h" unicode="fh" horiz-adv-x="906" 
d="M735 0v322q0 54 -18.5 84t-68.5 30q-32 0 -58.5 -15t-46 -41.5t-30 -62.5t-10.5 -78v-239h-85v660q-23 4 -44.5 5.5t-43.5 1.5q-69 0 -101.5 -28.5t-32.5 -91.5v-50h138v-66h-138v-431h-85v431h-104v66h104v58q0 84 55 132.5t172 48.5q38 0 80.5 -4t84.5 -10v-230
q0 -24 -2 -51.5t-7 -47.5l2 -1q22 53 67 84t108 31q42 0 71 -12.5t46 -34.5t24.5 -51t7.5 -62v-347h-85z" />
    <glyph glyph-name="fi" unicode="fi" horiz-adv-x="589" 
d="M418 0v431h-222v-431h-85v431h-104v66h104v23q0 105 56 161t174 56q37 0 71.5 -5.5t66.5 -13.5l-16 -71q-28 9 -61 14.5t-60 5.5q-78 0 -112 -35.5t-34 -101.5v-33h306v-497h-84z" />
    <glyph glyph-name="f_f_i" unicode="ffi" horiz-adv-x="891" 
d="M720 0v431h-221v-431h-85v431h-218v-431h-85v431h-104v66h104v25q0 40 10.5 77.5t36 65.5t67 45t103.5 17q47 0 86.5 -8.5t73.5 -23.5q26 19 64 30t93 11q37 0 72 -5t68 -13l-17 -71q-29 8 -62 13.5t-60 5.5q-78 0 -112.5 -35.5t-34.5 -101.5v-32h306v-497h-85zM440 634
q-32 14 -60 19t-56 5q-67 0 -97.5 -32t-30.5 -95v-34h218v23q0 28 5.5 58t20.5 56z" />
    <glyph glyph-name="f_j" unicode="fj" horiz-adv-x="588" 
d="M503 -58q0 -50 -8.5 -86.5t-28 -61.5t-52 -37t-80.5 -12q-17 0 -35.5 2t-32.5 7l7 75q30 -11 63 -11q24 0 40 5.5t25 19t13 36t4 57.5v495h-222v-431h-85v431h-104v66h104v23q0 104 56 160t174 56q37 0 71.5 -5t66.5 -13l-16 -71q-28 8 -61 13.5t-60 5.5
q-78 0 -112 -35.5t-34 -101.5v-32h307v-555z" />
    <glyph glyph-name="f_k" unicode="fk" horiz-adv-x="821" 
d="M418 660q-23 4 -44.5 5.5t-43.5 1.5q-69 0 -101.5 -28.5t-32.5 -91.5v-50h138v-66h-138v-431h-85v431h-104v66h104v58q0 84 55 132.5t172 48.5q38 0 80.5 -4t84.5 -10v-445l178 220h104l-193 -226l208 -271h-110l-187 258v-258h-85v660v0z" />
    <glyph glyph-name="fl" unicode="fl" horiz-adv-x="589" 
d="M418 0v660q-23 4 -44.5 6t-44.5 2q-68 0 -100.5 -29t-32.5 -92v-50h138v-66h-138v-431h-85v431h-104v66h104v58q0 84 55 133t172 49q38 0 82 -4t82 -11v-722h-84z" />
    <glyph glyph-name="f_f_l" unicode="ffl" horiz-adv-x="891" 
d="M720 0v660q-23 4 -44.5 5.5t-43.5 1.5q-69 0 -101 -28.5t-32 -91.5v-50h138v-66h-138v-431h-85v431h-218v-431h-85v431h-104v66h104v25q0 40 10.5 77.5t36 65.5t67 45t103.5 17q45 0 83.5 -8t71.5 -22q54 39 157 39q38 0 80.5 -4t84.5 -10v-722h-85zM433 638
q-29 12 -56 16t-53 4q-67 0 -97.5 -32t-30.5 -95v-34h218v58q0 48 19 83z" />
    <glyph glyph-name=".notdef" 
d="M150 150v250h50v-200h100v-50h-150zM50 50v450h450v-450h-450zM250 350v50h150v-250h-50v100h-100v50h100v50h-100zM450 100v350h-350v-350h350z" />
    <glyph glyph-name=".null" horiz-adv-x="0" 
 />
    <glyph glyph-name=".null" horiz-adv-x="0" 
 />
    <glyph glyph-name="nonmarkingreturn" unicode="&#xd;" horiz-adv-x="500" 
 />
    <glyph glyph-name="space" unicode=" " horiz-adv-x="218" 
 />
    <glyph glyph-name="space" unicode="&#xa0;" horiz-adv-x="218" 
 />
    <glyph glyph-name="A" unicode="A" horiz-adv-x="614" 
d="M334 480q-9 25 -16.5 49.5t-13.5 50.5h-2q-6 -25 -14 -50t-17 -51l-91 -249h245zM506 0l-57 161h-292l-57 -161h-89l248 675h95l249 -675h-97z" />
    <glyph glyph-name="Agrave" unicode="&#xc0;" horiz-adv-x="614" 
d="M334 480q-9 25 -16.5 49.5t-13.5 50.5h-2q-6 -25 -14 -50t-17 -51l-91 -249h245zM506 0l-57 161h-292l-57 -161h-89l248 675h95l249 -675h-97zM346 719l-184 71l29 59l175 -89z" />
    <glyph glyph-name="Aacute" unicode="&#xc1;" horiz-adv-x="614" 
d="M334 480q-9 25 -16.5 49.5t-13.5 50.5h-2q-6 -25 -14 -50t-17 -51l-91 -249h245zM506 0l-57 161h-292l-57 -161h-89l248 675h95l249 -675h-97zM260 719l-21 39l175 90l29 -58z" />
    <glyph glyph-name="Acircumflex" unicode="&#xc2;" horiz-adv-x="614" 
d="M334 480q-9 25 -16.5 49.5t-13.5 50.5h-2q-6 -25 -14 -50t-17 -51l-91 -249h245zM506 0l-57 161h-292l-57 -161h-89l248 675h95l249 -675h-97zM432 717l-129 64l-125 -64l-21 42l148 83l152 -80z" />
    <glyph glyph-name="Atilde" unicode="&#xc3;" horiz-adv-x="614" 
d="M334 480q-9 25 -16.5 49.5t-13.5 50.5h-2q-6 -25 -14 -50t-17 -51l-91 -249h245zM506 0l-57 161h-292l-57 -161h-89l248 675h95l249 -675h-97zM468 788q-17 -24 -40.5 -39.5t-56.5 -15.5q-22 0 -38 6t-29.5 13.5t-26.5 13.5t-31 6q-19 0 -33 -10t-25 -25l-35 35
q17 26 40.5 41.5t58.5 15.5q21 0 36.5 -6t29.5 -13t27.5 -13t30.5 -6q19 0 33.5 9.5t25.5 24.5l33 -37v0z" />
    <glyph glyph-name="Adieresis" unicode="&#xc4;" horiz-adv-x="614" 
d="M334 480q-9 25 -16.5 49.5t-13.5 50.5h-2q-6 -25 -14 -50t-17 -51l-91 -249h245zM506 0l-57 161h-292l-57 -161h-89l248 675h95l249 -675h-97zM247 781q0 -20 -15 -35t-35 -15t-34.5 15t-14.5 35t14.5 34.5t34.5 14.5t35 -14.5t15 -34.5zM464 781q0 -20 -14.5 -35
t-35.5 -15q-20 0 -34.5 15t-14.5 35t14.5 34.5t34.5 14.5q21 0 35.5 -14.5t14.5 -34.5z" />
    <glyph glyph-name="Aring" unicode="&#xc5;" horiz-adv-x="614" 
d="M334 480q-9 25 -16.5 49.5t-13.5 50.5h-2q-6 -25 -14 -50t-17 -51l-91 -249h245zM506 0l-57 161h-292l-57 -161h-89l248 675h95l249 -675h-97zM357 817q0 22 -14.5 37t-35.5 15q-22 0 -36.5 -15t-14.5 -37q0 -21 14.5 -36.5t36.5 -15.5q21 0 35.5 15.5t14.5 36.5z
M412 819q0 -21 -8.5 -39.5t-23 -32.5t-34 -22.5t-40.5 -8.5q-44 0 -74 27.5t-30 72.5q0 21 8.5 40t23 32.5t33.5 21.5t40 8q45 0 75 -28t30 -71z" />
    <glyph glyph-name="AE" unicode="&#xc6;" horiz-adv-x="780" 
d="M362 603h-2q-13 -28 -27 -59t-40 -78l-127 -232h196v369zM362 0v165h-228l-87 -165h-91l363 675h380v-71h-252v-221h242v-70h-242v-241h262v-72h-347z" />
    <glyph glyph-name="B" unicode="B" horiz-adv-x="568" 
d="M425 198q0 34 -14.5 56.5t-39.5 36t-59 19.5t-74 6q-33 0 -64 -1v-242q13 -2 35 -4t53 -2q85 0 124 37t39 94zM411 502q0 23 -6.5 42.5t-23 33.5t-44.5 22t-70 8q-24 0 -48.5 -0.5t-44.5 -1.5v-224q33 -1 62 -1q86 0 130.5 32t44.5 89zM515 201q0 -29 -10.5 -64.5
t-39.5 -66.5t-79.5 -52t-129.5 -21q-30 0 -75.5 1t-93.5 2v675q36 1 85 2t110 1q112 0 165 -43t53 -118q0 -27 -9 -52t-25 -46t-38.5 -36.5t-50.5 -23.5v-2q36 -6 62 -21t43 -36t25 -46.5t8 -52.5z" />
    <glyph glyph-name="C" unicode="C" horiz-adv-x="585" 
d="M540 33q-37 -20 -86.5 -30.5t-106.5 -10.5q-78 0 -134.5 24t-93.5 67.5t-54.5 104t-17.5 133.5q0 77 18.5 143t57 114t97.5 75.5t140 27.5q43 0 87 -8t86 -25l-21 -78q-38 17 -76.5 26.5t-84.5 9.5q-55 0 -95 -21.5t-65.5 -58t-37.5 -86t-12 -105.5q0 -128 55.5 -197
t169.5 -69q45 0 84 10t71 27l19 -73v0z" />
    <glyph glyph-name="Ccedilla" unicode="&#xc7;" horiz-adv-x="585" 
d="M540 33q-37 -20 -86.5 -30.5t-106.5 -10.5q-78 0 -134.5 24t-93.5 67.5t-54.5 104t-17.5 133.5q0 77 18.5 143t57 114t97.5 75.5t140 27.5q43 0 87 -8t86 -25l-21 -78q-38 17 -76.5 26.5t-84.5 9.5q-55 0 -95 -21.5t-65.5 -58t-37.5 -86t-12 -105.5q0 -128 55.5 -197
t169.5 -69q45 0 84 10t71 27l19 -73v0zM358 -41q38 -50 29.5 -97t-51.5 -97h-70q20 25 32 45.5t14.5 40t-4 39t-24.5 41.5l74 28v0z" />
    <glyph glyph-name="D" unicode="D" horiz-adv-x="675" 
d="M537 339q0 133 -64 201t-195 68q-27 0 -56 -1t-48 -2v-530q20 -3 45.5 -4.5t45.5 -1.5q59 0 109 16t86 49t56.5 84t20.5 121zM628 345q0 -87 -28.5 -152.5t-78.5 -109t-118 -65.5t-147 -22q-51 0 -91.5 2t-77.5 2v674q39 1 92 2.5t108 1.5q79 0 142.5 -19.5t107.5 -60.5
t67.5 -103.5t23.5 -149.5z" />
    <glyph glyph-name="Eth" unicode="&#xd0;" horiz-adv-x="689" 
d="M552 338q0 134 -65 202t-199 68q-28 0 -56.5 -1t-48.5 -2v-225h143v-66h-143v-241q3 0 14 -1t25 -1.5t28.5 -1t25.5 -0.5q61 0 111.5 16t87 49t57 83.5t20.5 120.5zM642 344q0 -87 -28 -152.5t-78 -109t-119 -65t-152 -21.5q-51 0 -91 2t-77 2v314h-96v66h96v294
q40 1 92.5 2.5t106.5 1.5q82 0 146 -19.5t108.5 -60.5t68 -104t23.5 -150z" />
    <glyph glyph-name="E" unicode="E" horiz-adv-x="503" 
d="M87 0v675h345v-72h-258v-220h245v-70h-245v-240h258v-73h-345z" />
    <glyph glyph-name="Egrave" unicode="&#xc8;" horiz-adv-x="503" 
d="M87 0v675h345v-72h-258v-220h245v-70h-245v-240h258v-73h-345zM301 719l-184 71l29 59l175 -89z" />
    <glyph glyph-name="Eacute" unicode="&#xc9;" horiz-adv-x="503" 
d="M87 0v675h345v-72h-258v-220h245v-70h-245v-240h258v-73h-345zM217 719l-21 39l175 90l29 -58z" />
    <glyph glyph-name="Ecircumflex" unicode="&#xca;" horiz-adv-x="503" 
d="M87 0v675h345v-72h-258v-220h245v-70h-245v-240h258v-73h-345zM389 717l-129 64l-125 -64l-21 42l148 83l152 -80z" />
    <glyph glyph-name="Edieresis" unicode="&#xcb;" horiz-adv-x="503" 
d="M87 0v675h345v-72h-258v-220h245v-70h-245v-240h258v-73h-345zM196 781q0 -20 -15 -35t-35 -15t-34.5 15t-14.5 35t14.5 34.5t34.5 14.5t35 -14.5t15 -34.5zM413 781q0 -20 -14.5 -35t-35.5 -15q-20 0 -34.5 15t-14.5 35t14.5 34.5t34.5 14.5q21 0 35.5 -14.5t14.5 -34.5
z" />
    <glyph glyph-name="F" unicode="F" horiz-adv-x="469" 
d="M174 604v-225h242v-70h-242v-309h-87v675h342v-71h-255z" />
    <glyph glyph-name="G" unicode="G" horiz-adv-x="683" 
d="M600 30q-51 -19 -109 -29t-113 -10q-76 0 -137.5 22.5t-105 65.5t-67.5 105t-24 140t25 144t71 114t112 75t149 27q108 0 194 -33l-21 -79q-40 18 -84.5 28t-96.5 10q-51 0 -97.5 -17t-82 -51.5t-56.5 -86t-21 -120.5q0 -65 18 -115t51.5 -84t80.5 -52t105 -18q35 0 65 5
t59 14v258h85v-313v0z" />
    <glyph glyph-name="H" unicode="H" horiz-adv-x="699" 
d="M526 0v314h-352v-314h-87v675h87v-288h352v288h86v-675h-86z" />
    <glyph glyph-name="I" unicode="I" horiz-adv-x="261" 
d="M87 0v675h87v-675h-87z" />
    <glyph glyph-name="Igrave" unicode="&#xcc;" horiz-adv-x="261" 
d="M87 0v675h87v-675h-87zM168 719l-184 71l29 59l175 -89z" />
    <glyph glyph-name="Iacute" unicode="&#xcd;" horiz-adv-x="261" 
d="M87 0v675h87v-675h-87zM92 719l-21 39l175 90l29 -58z" />
    <glyph glyph-name="Icircumflex" unicode="&#xce;" horiz-adv-x="261" 
d="M87 0v675h87v-675h-87zM259 717l-129 64l-125 -64l-21 42l148 83l152 -80z" />
    <glyph glyph-name="Idieresis" unicode="&#xcf;" horiz-adv-x="261" 
d="M87 0v675h87v-675h-87zM72 782q0 -20 -15 -35t-35 -15t-34.5 15t-14.5 35t14.5 34.5t34.5 14.5t35 -14.5t15 -34.5zM289 782q0 -20 -14.5 -35t-35.5 -15q-20 0 -34.5 15t-14.5 35t14.5 34.5t34.5 14.5q21 0 35.5 -14.5t14.5 -34.5z" />
    <glyph glyph-name="J" unicode="J" horiz-adv-x="329" 
d="M242 174q0 -84 -38 -132.5t-129 -48.5q-40 0 -74 8v76q14 -5 32.5 -8t37.5 -3q20 0 36 5t26.5 17.5t16 34.5t5.5 57v495h87v-501v0z" />
    <glyph glyph-name="K" unicode="K" horiz-adv-x="583" 
d="M448 0l-274 336v-336h-87v675h87v-320l275 320h106l-290 -326l301 -349h-118z" />
    <glyph glyph-name="L" unicode="L" horiz-adv-x="426" 
d="M87 0v675h87v-601h245v-74h-332z" />
    <glyph glyph-name="Lslash" unicode="&#x141;" horiz-adv-x="434" 
d="M96 0v353l-80 -36l-19 65l99 45v248h86v-207l113 51l19 -65l-132 -60v-320h245v-74h-331z" />
    <glyph glyph-name="M" unicode="M" horiz-adv-x="890" 
d="M748 0l-58 399q-8 60 -13 99t-8 68h-2q-5 -23 -13 -53t-20 -65l-150 -448h-93l-142 418q-13 38 -25 77t-18 71h-1q-3 -41 -8 -82.5t-11 -92.5l-47 -391h-88l98 675h107l146 -436q12 -37 22 -70.5t16 -62.5h2q8 35 16 63t20 63l151 443h109l102 -675h-92z" />
    <glyph glyph-name="N" unicode="N" horiz-adv-x="709" 
d="M508 0l-266 429q-45 73 -77 139q1 -28 2.5 -71t2.5 -92.5t1.5 -99.5t0.5 -92v-213h-85v675h114l260 -417q23 -36 43.5 -73.5t39.5 -72.5q-2 32 -3 78t-2 97t-1.5 103t-0.5 95v190h84v-675h-113z" />
    <glyph glyph-name="Ntilde" unicode="&#xd1;" horiz-adv-x="709" 
d="M508 0l-266 429q-45 73 -77 139q1 -28 2.5 -71t2.5 -92.5t1.5 -99.5t0.5 -92v-213h-85v675h114l260 -417q23 -36 43.5 -73.5t39.5 -72.5q-2 32 -3 78t-2 97t-1.5 103t-0.5 95v190h84v-675h-113zM515 788q-17 -24 -40.5 -39.5t-56.5 -15.5q-22 0 -38 6t-29.5 13.5
t-26.5 13.5t-31 6q-19 0 -33 -10t-25 -25l-35 35q17 26 40.5 41.5t58.5 15.5q21 0 36.5 -6t29.5 -13t27.5 -13t30.5 -6q19 0 33.5 9.5t25.5 24.5l33 -37v0z" />
    <glyph glyph-name="O" unicode="O" horiz-adv-x="705" 
d="M570 334q0 133 -57 204t-161 71q-43 0 -82.5 -17t-69.5 -51t-47.5 -83.5t-17.5 -114.5q0 -62 13 -112.5t40 -87t67.5 -56.5t95.5 -20q42 0 81.5 17t70 50.5t49 83.5t18.5 116zM662 345q0 -84 -25 -150t-68.5 -111.5t-101.5 -69.5t-124 -24q-76 0 -132 24.5t-93.5 69
t-56 107t-18.5 139.5q0 85 25 151t68.5 111.5t101.5 69t124 23.5q68 0 123.5 -22t94.5 -65.5t60.5 -107t21.5 -145.5z" />
    <glyph glyph-name="Ograve" unicode="&#xd2;" horiz-adv-x="705" 
d="M570 334q0 133 -57 204t-161 71q-43 0 -82.5 -17t-69.5 -51t-47.5 -83.5t-17.5 -114.5q0 -62 13 -112.5t40 -87t67.5 -56.5t95.5 -20q42 0 81.5 17t70 50.5t49 83.5t18.5 116zM662 345q0 -84 -25 -150t-68.5 -111.5t-101.5 -69.5t-124 -24q-76 0 -132 24.5t-93.5 69
t-56 107t-18.5 139.5q0 85 25 151t68.5 111.5t101.5 69t124 23.5q68 0 123.5 -22t94.5 -65.5t60.5 -107t21.5 -145.5zM381 719l-184 71l29 59l175 -89z" />
    <glyph glyph-name="Oacute" unicode="&#xd3;" horiz-adv-x="705" 
d="M570 334q0 133 -57 204t-161 71q-43 0 -82.5 -17t-69.5 -51t-47.5 -83.5t-17.5 -114.5q0 -62 13 -112.5t40 -87t67.5 -56.5t95.5 -20q42 0 81.5 17t70 50.5t49 83.5t18.5 116zM662 345q0 -84 -25 -150t-68.5 -111.5t-101.5 -69.5t-124 -24q-76 0 -132 24.5t-93.5 69
t-56 107t-18.5 139.5q0 85 25 151t68.5 111.5t101.5 69t124 23.5q68 0 123.5 -22t94.5 -65.5t60.5 -107t21.5 -145.5zM322 719l-21 39l175 90l29 -58z" />
    <glyph glyph-name="Ocircumflex" unicode="&#xd4;" horiz-adv-x="705" 
d="M570 334q0 133 -57 204t-161 71q-43 0 -82.5 -17t-69.5 -51t-47.5 -83.5t-17.5 -114.5q0 -62 13 -112.5t40 -87t67.5 -56.5t95.5 -20q42 0 81.5 17t70 50.5t49 83.5t18.5 116zM662 345q0 -84 -25 -150t-68.5 -111.5t-101.5 -69.5t-124 -24q-76 0 -132 24.5t-93.5 69
t-56 107t-18.5 139.5q0 85 25 151t68.5 111.5t101.5 69t124 23.5q68 0 123.5 -22t94.5 -65.5t60.5 -107t21.5 -145.5zM483 717l-129 64l-125 -64l-21 42l148 83l152 -80z" />
    <glyph glyph-name="Otilde" unicode="&#xd5;" horiz-adv-x="705" 
d="M570 334q0 133 -57 204t-161 71q-43 0 -82.5 -17t-69.5 -51t-47.5 -83.5t-17.5 -114.5q0 -62 13 -112.5t40 -87t67.5 -56.5t95.5 -20q42 0 81.5 17t70 50.5t49 83.5t18.5 116zM662 345q0 -84 -25 -150t-68.5 -111.5t-101.5 -69.5t-124 -24q-76 0 -132 24.5t-93.5 69
t-56 107t-18.5 139.5q0 85 25 151t68.5 111.5t101.5 69t124 23.5q68 0 123.5 -22t94.5 -65.5t60.5 -107t21.5 -145.5zM517 788q-17 -24 -40.5 -39.5t-56.5 -15.5q-22 0 -38 6t-29.5 13.5t-26.5 13.5t-31 6q-19 0 -33 -10t-25 -25l-35 35q17 26 40.5 41.5t58.5 15.5
q21 0 36.5 -6t29.5 -13t27.5 -13t30.5 -6q19 0 33.5 9.5t25.5 24.5l33 -37v0z" />
    <glyph glyph-name="Odieresis" unicode="&#xd6;" horiz-adv-x="705" 
d="M570 334q0 133 -57 204t-161 71q-43 0 -82.5 -17t-69.5 -51t-47.5 -83.5t-17.5 -114.5q0 -62 13 -112.5t40 -87t67.5 -56.5t95.5 -20q42 0 81.5 17t70 50.5t49 83.5t18.5 116zM662 345q0 -84 -25 -150t-68.5 -111.5t-101.5 -69.5t-124 -24q-76 0 -132 24.5t-93.5 69
t-56 107t-18.5 139.5q0 85 25 151t68.5 111.5t101.5 69t124 23.5q68 0 123.5 -22t94.5 -65.5t60.5 -107t21.5 -145.5zM297 781q0 -20 -15 -35t-35 -15t-34.5 15t-14.5 35t14.5 34.5t34.5 14.5t35 -14.5t15 -34.5zM514 781q0 -20 -14.5 -35t-35.5 -15q-20 0 -34.5 15
t-14.5 35t14.5 34.5t34.5 14.5q21 0 35.5 -14.5t14.5 -34.5z" />
    <glyph glyph-name="Oslash" unicode="&#xd8;" horiz-adv-x="705" 
d="M407 601q-17 4 -33.5 5.5t-36.5 0.5q-42 -2 -79 -20t-65.5 -51.5t-45 -82.5t-16.5 -113q0 -80 20.5 -141t71.5 -95l184 497v0zM570 332q0 85 -25 148.5t-77 94.5l-183 -501q17 -5 34.5 -7t34.5 -2q45 1 84.5 18.5t69 51.5t46 83t16.5 114zM659 341q0 -84 -24.5 -149.5
t-67.5 -110t-101.5 -68t-126.5 -23.5q-46 0 -80 10l-38 -103l-65 21l38 103q-80 40 -116 121.5t-36 189.5q0 84 24.5 150t67.5 111t100.5 68.5t123.5 23.5q40 0 75 -9l36 98l64 -22l-35 -95q76 -35 118.5 -113.5t42.5 -202.5z" />
    <glyph glyph-name="OE" unicode="&#x152;" horiz-adv-x="834" 
d="M420 601q-16 3 -33.5 4.5t-34.5 1.5q-45 0 -84.5 -18t-69 -52t-47 -83.5t-17.5 -112.5q0 -56 11.5 -105.5t37.5 -86.5t68 -58.5t103 -21.5q17 0 34.5 1.5t31.5 4.5v526zM488 0q-42 0 -76.5 -3t-72.5 -3q-78 0 -134 25t-92 70t-53 107t-17 136q0 82 24.5 146.5t67.5 109.5
t100 68.5t122 23.5q37 0 68.5 -2.5t60.5 -2.5h277v-71h-259v-221h246v-70h-246v-241h259v-72h-275z" />
    <glyph glyph-name="P" unicode="P" horiz-adv-x="523" 
d="M399 473q0 66 -38.5 100t-120.5 34h-36t-30 -1v-272q13 -2 27.5 -3t29.5 -1q78 0 123 39t45 104zM490 483q0 -50 -19.5 -91t-54.5 -70.5t-82.5 -46t-104.5 -16.5h-28q-13 0 -27 2v-261h-87v675q37 2 78 3t86 1q116 0 177.5 -53.5t61.5 -142.5z" />
    <glyph glyph-name="Thorn" unicode="&#xde;" horiz-adv-x="523" 
d="M174 558q19 1 38 1h39q116 0 177.5 -53.5t61.5 -142.5q0 -50 -19.5 -91t-54.5 -70.5t-82.5 -46t-104.5 -16.5h-28q-13 0 -27 2v-141h-87v675h87v-117zM399 353q0 66 -38.5 100t-120.5 34h-36t-30 -1v-272q13 -2 27.5 -3t29.5 -1q78 0 123 39t45 104z" />
    <glyph glyph-name="Q" unicode="Q" horiz-adv-x="704" 
d="M570 334q0 133 -57 204t-161 71q-43 0 -82.5 -17t-69.5 -51t-47.5 -83.5t-17.5 -114.5q0 -62 13 -112.5t40 -87t67.5 -56.5t95.5 -20q42 0 81.5 17t70 50.5t49 83.5t18.5 116zM703 -183q-64 -9 -112 -2.5t-90 17t-84 18t-94 0.5v77q60 7 105 0t87 -17t86 -16.5t102 1.5
v-78v0zM662 345q0 -84 -25 -150t-68.5 -111.5t-101.5 -69.5t-124 -24q-76 0 -132 24.5t-93.5 69t-56 107t-18.5 139.5q0 85 25 151t68.5 111.5t101.5 69t124 23.5q68 0 123.5 -22t94.5 -65.5t60.5 -107t21.5 -145.5z" />
    <glyph glyph-name="Q.alt3" unicode="&#xf020;" horiz-adv-x="705" 
d="M570 334q0 134 -56.5 204.5t-161.5 70.5q-43 0 -82.5 -17t-69.5 -51t-47.5 -83.5t-17.5 -114.5q0 -61 13 -112t40 -87.5t67.5 -56.5t95.5 -20q42 0 81.5 17t70 50.5t49 83.5t18.5 116zM705 -67q-63 -8 -103.5 0t-74 21t-69.5 25t-90 12h-25q-76 0 -132 24t-93.5 68.5
t-56 107t-18.5 139.5q0 85 25 151t68.5 111t101.5 68.5t124 23.5q69 0 124.5 -22t94.5 -65t60 -106t21 -146q0 -67 -16.5 -120.5t-43.5 -94.5q-17 -26 -46.5 -51t-60.5 -39q26 0 48 -6t45.5 -12.5t51.5 -11t65 -0.5v-77v0z" />
    <glyph glyph-name="R" unicode="R" horiz-adv-x="551" 
d="M389 493q0 63 -39 89.5t-114 26.5q-35 0 -62 -3v-234q8 -1 23 -1.5t36 -0.5q75 0 115.5 34t40.5 89zM412 0l-203 304h-35v-304h-87v675q34 2 72 3t94 1q49 0 90.5 -9t71.5 -30t47 -54t17 -81q0 -43 -15 -76.5t-39.5 -57t-57 -38t-67.5 -18.5l223 -315h-111z" />
    <glyph glyph-name="S" unicode="S" horiz-adv-x="504" 
d="M451 193q0 -45 -17.5 -82.5t-49 -64t-75.5 -41t-98 -14.5q-46 0 -86 5t-70 16l17 83q30 -14 66.5 -21.5t81.5 -7.5q26 0 51.5 6t45.5 19.5t32 35.5t12 54q0 19 -6 35.5t-20.5 31.5t-39 29.5t-61.5 30.5l-37 16q-76 33 -109 74.5t-33 100.5q0 41 15.5 75t44.5 58.5t71 38
t95 13.5q38 0 69.5 -3t63.5 -11l-16 -77q-26 9 -56 14t-65 5q-66 0 -99.5 -27t-33.5 -76q0 -40 27 -66t79 -49l39 -17q81 -35 121.5 -76t40.5 -108z" />
    <glyph glyph-name="Scaron" unicode="&#x160;" horiz-adv-x="503" 
d="M451 193q0 -45 -17.5 -82.5t-49 -64t-75.5 -41t-98 -14.5q-46 0 -86 5t-70 16l17 83q30 -14 66.5 -21.5t81.5 -7.5q26 0 51.5 6t45.5 19.5t32 35.5t12 54q0 19 -6 35.5t-20.5 31.5t-39 29.5t-61.5 30.5l-37 16q-76 33 -109 74.5t-33 100.5q0 41 15.5 75t44.5 58.5t71 38
t95 13.5q38 0 69.5 -3t63.5 -11l-16 -77q-26 9 -56 14t-65 5q-66 0 -99.5 -27t-33.5 -76q0 -40 27 -66t79 -49l39 -17q81 -35 121.5 -76t40.5 -108zM252 720l-152 80l25 45l128 -64l126 64l21 -42z" />
    <glyph glyph-name="T" unicode="T" horiz-adv-x="517" 
d="M302 603v-603h-87v603h-197v72h481v-72h-197z" />
    <glyph glyph-name="U" unicode="U" horiz-adv-x="694" 
d="M607 265q0 -133 -69 -204t-200 -71q-77 0 -126 22.5t-76.5 59.5t-38 83t-10.5 94v426h87v-419q0 -39 7.5 -74.5t27 -62t52.5 -42t84 -15.5q91 0 134 45.5t43 150.5v417h85v-410v0z" />
    <glyph glyph-name="Ugrave" unicode="&#xd9;" horiz-adv-x="694" 
d="M607 265q0 -133 -69 -204t-200 -71q-77 0 -126 22.5t-76.5 59.5t-38 83t-10.5 94v426h87v-419q0 -39 7.5 -74.5t27 -62t52.5 -42t84 -15.5q91 0 134 45.5t43 150.5v417h85v-410v0zM372 719l-184 71l29 59l175 -89z" />
    <glyph glyph-name="Uacute" unicode="&#xda;" horiz-adv-x="694" 
d="M607 265q0 -133 -69 -204t-200 -71q-77 0 -126 22.5t-76.5 59.5t-38 83t-10.5 94v426h87v-419q0 -39 7.5 -74.5t27 -62t52.5 -42t84 -15.5q91 0 134 45.5t43 150.5v417h85v-410v0zM330 719l-21 39l175 90l29 -58z" />
    <glyph glyph-name="Ucircumflex" unicode="&#xdb;" horiz-adv-x="694" 
d="M607 265q0 -133 -69 -204t-200 -71q-77 0 -126 22.5t-76.5 59.5t-38 83t-10.5 94v426h87v-419q0 -39 7.5 -74.5t27 -62t52.5 -42t84 -15.5q91 0 134 45.5t43 150.5v417h85v-410v0zM473 717l-129 64l-125 -64l-21 42l148 83l152 -80z" />
    <glyph glyph-name="Udieresis" unicode="&#xdc;" horiz-adv-x="695" 
d="M607 265q0 -133 -69 -204t-200 -71q-77 0 -126 22.5t-76.5 59.5t-38 83t-10.5 94v426h87v-419q0 -39 7.5 -74.5t27 -62t52.5 -42t84 -15.5q91 0 134 45.5t43 150.5v417h85v-410v0zM287 781q0 -20 -15 -35t-35 -15t-34.5 15t-14.5 35t14.5 34.5t34.5 14.5t35 -14.5
t15 -34.5zM504 781q0 -20 -14.5 -35t-35.5 -15q-20 0 -34.5 15t-14.5 35t14.5 34.5t34.5 14.5q21 0 35.5 -14.5t14.5 -34.5z" />
    <glyph glyph-name="V" unicode="V" horiz-adv-x="616" 
d="M353 0h-97l-244 675h96l154 -440q11 -29 22.5 -66t22.5 -75h1q10 37 22 72.5t26 75.5l158 433h88z" />
    <glyph glyph-name="W" unicode="W" horiz-adv-x="952" 
d="M738 0h-107l-133 466q-8 29 -14 57.5t-11 55.5h-1q-7 -54 -24 -113l-129 -466h-105l-179 675h93l117 -449q9 -35 15.5 -66t11.5 -63h1q5 32 12 63t15 60l128 455h99l133 -459q8 -26 15 -57t12 -61h1q5 29 10.5 55t12.5 52l120 470h86z" />
    <glyph glyph-name="X" unicode="X" horiz-adv-x="595" 
d="M469 0l-176 283l-175 -283h-100l223 348l-209 327h100l163 -261l160 261h98l-206 -323l230 -352h-108z" />
    <glyph glyph-name="Y" unicode="Y" horiz-adv-x="534" 
d="M307 244v-244h-86v244l-211 431h95l110 -233q14 -30 27 -59.5t24 -58.5h1q12 32 27.5 64.5t31.5 65.5l106 221h91z" />
    <glyph glyph-name="Yacute" unicode="&#xdd;" horiz-adv-x="534" 
d="M307 244v-244h-86v244l-211 431h95l110 -233q14 -30 27 -59.5t24 -58.5h1q12 32 27.5 64.5t31.5 65.5l106 221h91zM254 719l-21 39l175 90l29 -58z" />
    <glyph glyph-name="Ydieresis" unicode="&#x178;" horiz-adv-x="534" 
d="M307 244v-244h-86v244l-211 431h95l110 -233q14 -30 27 -59.5t24 -58.5h1q12 32 27.5 64.5t31.5 65.5l106 221h91zM209 781q0 -20 -15 -35t-35 -15t-34.5 15t-14.5 35t14.5 34.5t34.5 14.5t35 -14.5t15 -34.5zM426 781q0 -20 -14.5 -35t-35.5 -15q-20 0 -34.5 15
t-14.5 35t14.5 34.5t34.5 14.5q21 0 35.5 -14.5t14.5 -34.5z" />
    <glyph glyph-name="Z" unicode="Z" horiz-adv-x="539" 
d="M46 0v63l289 453l54 82h-333v77h435v-65l-304 -472l-39 -59h347v-79h-449z" />
    <glyph glyph-name="Zcaron" unicode="&#x17d;" horiz-adv-x="539" 
d="M46 0v63l289 453l54 82h-333v77h435v-65l-304 -472l-39 -59h347v-79h-449zM280 720l-152 80l25 45l128 -64l126 64l21 -42z" />
    <glyph glyph-name="a" unicode="a" horiz-adv-x="521" 
d="M348 234q-66 0 -108.5 -9t-67.5 -23t-34.5 -33t-9.5 -38q0 -32 22.5 -52.5t58.5 -20.5q31 0 56.5 14t44 37.5t28.5 53t10 59.5v12zM352 0q0 27 0.5 53.5t4.5 47.5h-2q-18 -47 -62.5 -78.5t-107.5 -31.5q-61 0 -100.5 33.5t-39.5 93.5q0 81 78 128.5t225 47.5v26
q0 60 -24 89.5t-90 29.5q-38 0 -74 -10t-66 -27l-18 69q32 14 76 25t95 11q55 0 91 -12.5t57 -35.5t29 -55.5t8 -71.5v-187q0 -36 0.5 -74.5t1.5 -70.5h-82z" />
    <glyph glyph-name="agrave" unicode="&#xe0;" horiz-adv-x="521" 
d="M348 234q-66 0 -108.5 -9t-67.5 -23t-34.5 -33t-9.5 -38q0 -32 22.5 -52.5t58.5 -20.5q31 0 56.5 14t44 37.5t28.5 53t10 59.5v12zM352 0q0 27 0.5 53.5t4.5 47.5h-2q-18 -47 -62.5 -78.5t-107.5 -31.5q-61 0 -100.5 33.5t-39.5 93.5q0 81 78 128.5t225 47.5v26
q0 60 -24 89.5t-90 29.5q-38 0 -74 -10t-66 -27l-18 69q32 14 76 25t95 11q55 0 91 -12.5t57 -35.5t29 -55.5t8 -71.5v-187q0 -36 0.5 -74.5t1.5 -70.5h-82zM274 572l-146 114l48 56l136 -125z" />
    <glyph glyph-name="aacute" unicode="&#xe1;" horiz-adv-x="521" 
d="M348 234q-66 0 -108.5 -9t-67.5 -23t-34.5 -33t-9.5 -38q0 -32 22.5 -52.5t58.5 -20.5q31 0 56.5 14t44 37.5t28.5 53t10 59.5v12zM352 0q0 27 0.5 53.5t4.5 47.5h-2q-18 -47 -62.5 -78.5t-107.5 -31.5q-61 0 -100.5 33.5t-39.5 93.5q0 81 78 128.5t225 47.5v26
q0 60 -24 89.5t-90 29.5q-38 0 -74 -10t-66 -27l-18 69q32 14 76 25t95 11q55 0 91 -12.5t57 -35.5t29 -55.5t8 -71.5v-187q0 -36 0.5 -74.5t1.5 -70.5h-82zM245 572l-37 45l136 125l47 -56z" />
    <glyph glyph-name="acircumflex" unicode="&#xe2;" horiz-adv-x="521" 
d="M348 234q-66 0 -108.5 -9t-67.5 -23t-34.5 -33t-9.5 -38q0 -32 22.5 -52.5t58.5 -20.5q31 0 56.5 14t44 37.5t28.5 53t10 59.5v12zM352 0q0 27 0.5 53.5t4.5 47.5h-2q-18 -47 -62.5 -78.5t-107.5 -31.5q-61 0 -100.5 33.5t-39.5 93.5q0 81 78 128.5t225 47.5v26
q0 60 -24 89.5t-90 29.5q-38 0 -74 -10t-66 -27l-18 69q32 14 76 25t95 11q55 0 91 -12.5t57 -35.5t29 -55.5t8 -71.5v-187q0 -36 0.5 -74.5t1.5 -70.5h-82zM355 572l-99 85l-99 -85l-37 40l138 130l136 -129z" />
    <glyph glyph-name="atilde" unicode="&#xe3;" horiz-adv-x="521" 
d="M348 234q-66 0 -108.5 -9t-67.5 -23t-34.5 -33t-9.5 -38q0 -32 22.5 -52.5t58.5 -20.5q31 0 56.5 14t44 37.5t28.5 53t10 59.5v12zM352 0q0 27 0.5 53.5t4.5 47.5h-2q-18 -47 -62.5 -78.5t-107.5 -31.5q-61 0 -100.5 33.5t-39.5 93.5q0 81 78 128.5t225 47.5v26
q0 60 -24 89.5t-90 29.5q-38 0 -74 -10t-66 -27l-18 69q32 14 76 25t95 11q55 0 91 -12.5t57 -35.5t29 -55.5t8 -71.5v-187q0 -36 0.5 -74.5t1.5 -70.5h-82zM380 705l43 -34q-20 -36 -47 -56t-61 -20q-24 0 -41 8.5t-31 19t-26.5 19t-28.5 8.5q-34 0 -61 -47l-42 34
q19 37 46 56.5t61 19.5q24 0 41.5 -8.5t31.5 -19t26.5 -19t28.5 -8.5q33 0 60 47z" />
    <glyph glyph-name="adieresis" unicode="&#xe4;" horiz-adv-x="521" 
d="M348 234q-66 0 -108.5 -9t-67.5 -23t-34.5 -33t-9.5 -38q0 -32 22.5 -52.5t58.5 -20.5q31 0 56.5 14t44 37.5t28.5 53t10 59.5v12zM352 0q0 27 0.5 53.5t4.5 47.5h-2q-18 -47 -62.5 -78.5t-107.5 -31.5q-61 0 -100.5 33.5t-39.5 93.5q0 81 78 128.5t225 47.5v26
q0 60 -24 89.5t-90 29.5q-38 0 -74 -10t-66 -27l-18 69q32 14 76 25t95 11q55 0 91 -12.5t57 -35.5t29 -55.5t8 -71.5v-187q0 -36 0.5 -74.5t1.5 -70.5h-82zM212 653q0 -22 -14.5 -36.5t-36.5 -14.5t-37 14.5t-15 36.5t15 37t37 15t36.5 -15t14.5 -37zM402 653
q0 -22 -14.5 -36.5t-36.5 -14.5t-37 14.5t-15 36.5t15 37t37 15t36.5 -15t14.5 -37z" />
    <glyph glyph-name="aring" unicode="&#xe5;" horiz-adv-x="521" 
d="M348 234q-66 0 -108.5 -9t-67.5 -23t-34.5 -33t-9.5 -38q0 -32 22.5 -52.5t58.5 -20.5q31 0 56.5 14t44 37.5t28.5 53t10 59.5v12zM352 0q0 27 0.5 53.5t4.5 47.5h-2q-18 -47 -62.5 -78.5t-107.5 -31.5q-61 0 -100.5 33.5t-39.5 93.5q0 81 78 128.5t225 47.5v26
q0 60 -24 89.5t-90 29.5q-38 0 -74 -10t-66 -27l-18 69q32 14 76 25t95 11q55 0 91 -12.5t57 -35.5t29 -55.5t8 -71.5v-187q0 -36 0.5 -74.5t1.5 -70.5h-82zM316 662q0 23 -16.5 40t-40.5 17q-23 0 -39 -17t-16 -40t16 -40t39 -17q24 0 40.5 17t16.5 40zM372 662
q0 -22 -9 -41.5t-24.5 -34t-36 -23t-43.5 -8.5q-47 0 -79 30t-32 77q0 23 9 43t24 34.5t35 22.5t43 8q48 0 80.5 -30.5t32.5 -77.5z" />
    <glyph glyph-name="ae" unicode="&#xe6;" horiz-adv-x="808" 
d="M348 230q-67 0 -109 -9.5t-66 -24t-33 -32.5t-9 -35q0 -32 21 -51.5t57 -19.5q31 0 56.5 14t44 37.5t28.5 53t10 59.5v8zM674 319q2 56 -29 90t-85 34q-50 0 -84 -33.5t-42 -90.5h240v0zM761 299q0 -17 -3 -41h-327q-4 -105 36.5 -151.5t121.5 -46.5q39 0 78 8.5t68 22.5
l8 -69q-73 -31 -167 -31q-85 0 -134 33.5t-68 82.5l-1 -1q-11 -21 -28.5 -42t-41 -37t-53.5 -26t-66 -10q-61 0 -99 31t-38 91q0 40 20 73t58.5 56t94.5 35.5t128 12.5v39q0 51 -24.5 80.5t-86.5 29.5q-35 0 -76.5 -11t-73.5 -31l-9 73q36 16 79.5 26.5t93.5 10.5
q54 0 94 -19t60 -61h1q22 34 62.5 56.5t95.5 22.5q52 0 89.5 -16.5t61.5 -45t35 -66t11 -79.5z" />
    <glyph glyph-name="b" unicode="b" horiz-adv-x="558" 
d="M426 264q0 82 -27.5 127t-86.5 45q-35 0 -61 -18.5t-43.5 -47t-26.5 -63t-9 -66.5v-168q39 -13 91 -13q37 0 67 11.5t51.5 36t33 63.5t11.5 93zM514 272q0 -66 -18 -117.5t-51.5 -87.5t-81 -55t-107.5 -19q-51 0 -90 4.5t-79 15.5v717h85v-245q0 -22 -2 -47.5t-7 -44.5
l2 -1q20 54 64.5 84t101.5 30q88 0 135.5 -59.5t47.5 -174.5z" />
    <glyph glyph-name="c" unicode="c" horiz-adv-x="447" 
d="M418 30q-34 -17 -75 -27t-85 -10t-83 11.5t-68.5 39t-47 73.5t-17.5 115q0 61 14.5 111.5t44.5 86.5t74.5 55.5t104.5 19.5q35 0 68 -7t65 -20l-21 -71q-58 28 -119 28q-72 0 -107 -50t-35 -141q0 -37 6.5 -69.5t22.5 -56.5t42.5 -38t67.5 -14q36 0 70 8.5t60 22.5
l18 -67v0z" />
    <glyph glyph-name="ccedilla" unicode="&#xe7;" horiz-adv-x="447" 
d="M418 30q-34 -17 -75 -27t-85 -10t-83 11.5t-68.5 39t-47 73.5t-17.5 115q0 61 14.5 111.5t44.5 86.5t74.5 55.5t104.5 19.5q35 0 68 -7t65 -20l-21 -71q-58 28 -119 28q-72 0 -107 -50t-35 -141q0 -37 6.5 -69.5t22.5 -56.5t42.5 -38t67.5 -14q36 0 70 8.5t60 22.5
l18 -67v0zM274 -41q38 -50 29.5 -97t-51.5 -97h-70q20 25 32 45.5t14.5 40t-4 39t-24.5 41.5l74 28v0z" />
    <glyph glyph-name="d" unicode="d" horiz-adv-x="557" 
d="M385 426q-23 6 -46 8.5t-45 2.5q-37 0 -67 -11.5t-51.5 -36t-33 -63.5t-11.5 -93q0 -82 27.5 -127t86.5 -45q35 0 61 18.5t43.5 47t26.5 63t9 67.5v169zM387 0q0 22 1.5 51.5t6.5 52.5l-2 1q-20 -52 -64 -83t-104 -31q-92 0 -137.5 62.5t-45.5 171.5q0 66 18 117.5
t51.5 87.5t80.5 55t106 19q21 0 42.5 -1.5t44.5 -3.5v231h85v-730h-83z" />
    <glyph glyph-name="eth" unicode="&#xf0;" horiz-adv-x="545" 
d="M502 272q0 -72 -18 -124.5t-50 -87.5t-75 -52t-93 -17t-91 15.5t-70.5 47t-46 79t-16.5 112.5q0 55 16 102.5t46.5 82.5t74 55t97.5 20q32 0 62.5 -11t46.5 -37q-9 17 -17.5 31t-13.5 22q-13 23 -28.5 44.5t-37.5 44.5l-103 -47l-36 45l96 43q-17 16 -38 32.5t-45 34.5
l86 36q20 -16 39 -33t37 -36l102 45l36 -45l-98 -43q66 -78 102 -169t36 -190zM414 261q0 80 -35 127.5t-106 47.5q-28 0 -54 -11t-46 -34t-32 -57.5t-12 -82.5q0 -91 39.5 -139.5t108.5 -48.5q28 0 53 11t43.5 35t29.5 61.5t11 90.5z" />
    <glyph glyph-name="e" unicode="e" horiz-adv-x="507" 
d="M373 315q2 59 -29 93.5t-85 34.5q-51 0 -84 -34t-41 -94h239v0zM458 295v-19q0 -10 -2 -22h-326q-4 -102 35.5 -148t117.5 -46q42 0 80.5 8.5t67.5 22.5l15 -68q-35 -14 -81 -23t-97 -9q-110 0 -169 62t-57 193q0 56 15 103.5t43.5 82.5t69.5 54.5t94 19.5q52 0 88.5 -17
t60 -46.5t34.5 -67.5t11 -80z" />
    <glyph glyph-name="egrave" unicode="&#xe8;" horiz-adv-x="507" 
d="M373 315q2 59 -29 93.5t-85 34.5q-51 0 -84 -34t-41 -94h239v0zM458 295v-19q0 -10 -2 -22h-326q-4 -102 35.5 -148t117.5 -46q42 0 80.5 8.5t67.5 22.5l15 -68q-35 -14 -81 -23t-97 -9q-110 0 -169 62t-57 193q0 56 15 103.5t43.5 82.5t69.5 54.5t94 19.5q52 0 88.5 -17
t60 -46.5t34.5 -67.5t11 -80zM277 572l-146 114l48 56l136 -125z" />
    <glyph glyph-name="eacute" unicode="&#xe9;" horiz-adv-x="507" 
d="M373 315q2 59 -29 93.5t-85 34.5q-51 0 -84 -34t-41 -94h239v0zM458 295v-19q0 -10 -2 -22h-326q-4 -102 35.5 -148t117.5 -46q42 0 80.5 8.5t67.5 22.5l15 -68q-35 -14 -81 -23t-97 -9q-110 0 -169 62t-57 193q0 56 15 103.5t43.5 82.5t69.5 54.5t94 19.5q52 0 88.5 -17
t60 -46.5t34.5 -67.5t11 -80zM245 572l-37 45l136 125l47 -56z" />
    <glyph glyph-name="ecircumflex" unicode="&#xea;" horiz-adv-x="507" 
d="M373 315q2 59 -29 93.5t-85 34.5q-51 0 -84 -34t-41 -94h239v0zM458 295v-19q0 -10 -2 -22h-326q-4 -102 35.5 -148t117.5 -46q42 0 80.5 8.5t67.5 22.5l15 -68q-35 -14 -81 -23t-97 -9q-110 0 -169 62t-57 193q0 56 15 103.5t43.5 82.5t69.5 54.5t94 19.5q52 0 88.5 -17
t60 -46.5t34.5 -67.5t11 -80zM360 572l-99 85l-99 -85l-37 40l138 130l136 -129z" />
    <glyph glyph-name="edieresis" unicode="&#xeb;" horiz-adv-x="507" 
d="M373 315q2 59 -29 93.5t-85 34.5q-51 0 -84 -34t-41 -94h239v0zM458 295v-19q0 -10 -2 -22h-326q-4 -102 35.5 -148t117.5 -46q42 0 80.5 8.5t67.5 22.5l15 -68q-35 -14 -81 -23t-97 -9q-110 0 -169 62t-57 193q0 56 15 103.5t43.5 82.5t69.5 54.5t94 19.5q52 0 88.5 -17
t60 -46.5t34.5 -67.5t11 -80zM221 653q0 -22 -14.5 -36.5t-36.5 -14.5t-37 14.5t-15 36.5t15 37t37 15t36.5 -15t14.5 -37zM411 653q0 -22 -14.5 -36.5t-36.5 -14.5t-37 14.5t-15 36.5t15 37t37 15t36.5 -15t14.5 -37z" />
    <glyph glyph-name="f" unicode="f" horiz-adv-x="349" 
d="M375 656q-17 6 -36.5 8.5t-37.5 2.5q-55 0 -80 -32t-25 -100v-38h141v-66h-141v-431h-85v431h-104v66h104v36q0 104 49 153.5t141 49.5q21 0 44 -2.5t43 -7.5z" />
    <glyph glyph-name="f_i.TRK" unicode="&#xf004;" horiz-adv-x="589" 
d="M7 497h104v31q0 99 47 153.5t143 54.5q11 0 24 -1t21.5 -2t15.5 -2l-8 -71q-5 1 -16.5 3t-21.5 3t-21 1q-21 0 -39.5 -6.5t-31.5 -22t-20.5 -41t-7.5 -63.5v-37h307v-497h-85v431h-222v-431h-85v431h-104v66zM518 655q0 -23 -17 -39.5t-41 -16.5q-23 0 -40 16t-17 40
q0 23 17 39.5t40 16.5q24 0 41 -16t17 -40z" />
    <glyph glyph-name="g" unicode="g" horiz-adv-x="546" 
d="M421 -86q0 34 -22.5 56t-81.5 25l-124 6q-30 -18 -53 -46t-23 -57q0 -42 37 -65.5t101 -23.5q43 0 74.5 9t52 23.5t30 33.5t9.5 39zM380 327q0 49 -30 82.5t-90 33.5q-28 0 -50 -9t-37.5 -25t-24 -37t-8.5 -45q0 -50 31.5 -82t86.5 -32q54 0 88 31.5t34 82.5zM427 431
q17 -18 26 -43.5t9 -55.5q0 -38 -14.5 -71t-42 -58t-67 -39.5t-89.5 -14.5q-15 0 -29.5 1.5t-22.5 3.5q-31 -22 -31 -47q0 -17 18.5 -25t59.5 -10l90 -4q90 -4 130.5 -42.5t40.5 -98.5q0 -38 -17.5 -71.5t-51 -58.5t-82.5 -39.5t-113 -14.5q-44 0 -82 9t-66 27t-44 44.5
t-16 61.5q0 41 27 77.5t66 56.5q-49 19 -49 69q0 26 16 49t42 40q-38 20 -57 56t-19 84q0 38 14 72.5t40.5 60.5t65.5 41t89 15q20 0 36 -2.5t35 -6.5h174v-66h-86z" />
    <glyph glyph-name="h" unicode="h" horiz-adv-x="576" 
d="M405 0v321q0 55 -18.5 85.5t-69.5 30.5q-32 0 -58.5 -15t-46 -41.5t-30 -63t-10.5 -78.5v-239h-85v730h85v-238q0 -24 -2 -51.5t-7 -47.5l2 -1q22 53 66.5 84t107.5 31q43 0 72 -12.5t46 -34t24.5 -50.5t7.5 -62v-348h-84z" />
    <glyph glyph-name="i" unicode="i" horiz-adv-x="259" 
d="M87 0v497h85v-497h-85zM187 654q0 -23 -17 -39.5t-40 -16.5q-24 0 -40.5 16.5t-16.5 39.5t16.5 39t40.5 16q23 0 40 -15.5t17 -39.5z" />
    <glyph glyph-name="igrave" unicode="&#xec;" horiz-adv-x="259" 
d="M87 0v497h85v-497h-85zM161 572l-146 114l48 56l136 -125z" />
    <glyph glyph-name="iacute" unicode="&#xed;" horiz-adv-x="259" 
d="M87 0v497h85v-497h-85zM97 572l-37 45l136 125l47 -56z" />
    <glyph glyph-name="icircumflex" unicode="&#xee;" horiz-adv-x="259" 
d="M87 0v497h85v-497h-85zM228 572l-99 85l-99 -85l-37 40l138 130l136 -129z" />
    <glyph glyph-name="idieresis" unicode="&#xef;" horiz-adv-x="259" 
d="M87 0v497h85v-497h-85zM272 655q0 -22 -15 -37t-37 -15t-37 15t-15 37t15 37t37 15t37 -15t15 -37zM94 655q0 -22 -14.5 -37t-36.5 -15t-37 15t-15 37t15 37t37 15t36.5 -15t14.5 -37z" />
    <glyph glyph-name="dotlessi" unicode="&#x131;" horiz-adv-x="259" 
d="M87 0v497h85v-497h-85z" />
    <glyph glyph-name="j" unicode="j" horiz-adv-x="265" 
d="M178 -58q0 -99 -37 -147.5t-132 -48.5q-17 0 -37 2.5t-34 7.5l12 71q14 -5 30 -7.5t33 -2.5q24 0 39.5 5.5t25 19t13 36t3.5 57.5v562h84v-555v0zM193 654q0 -23 -17 -39.5t-40 -16.5t-40 16.5t-17 39.5t17 39t40 16t40 -15.5t17 -39.5z" />
    <glyph glyph-name="k" unicode="k" horiz-adv-x="490" 
d="M360 0l-188 258v-258h-85v730h85v-453l179 220h102l-193 -227l209 -270h-109z" />
    <glyph glyph-name="l" unicode="l" horiz-adv-x="259" 
d="M87 0v730h85v-730h-85z" />
    <glyph glyph-name="lslash" unicode="&#x142;" horiz-adv-x="290" 
d="M190 414v-414h-85v367l-64 -36l-21 61l85 49v289h85v-243l69 40l22 -61z" />
    <glyph glyph-name="m" unicode="m" horiz-adv-x="880" 
d="M708 0v320q0 53 -17 85t-67 32q-27 0 -53 -14t-45.5 -40t-31.5 -63t-12 -83v-237h-84v321q0 24 -3 45t-12 37t-25.5 25t-43.5 9q-29 0 -55 -15t-45.5 -41.5t-30.5 -63t-11 -80.5v-237h-85v497h83q0 -23 -2 -53t-7 -53l2 -1q22 54 68 85.5t106 31.5q40 0 66.5 -12.5
t42 -30.5t22 -37.5t7.5 -34.5q7 18 21 38t35 37t49.5 28.5t65.5 11.5q71 0 109 -39t38 -124v-344h-85z" />
    <glyph glyph-name="n" unicode="n" horiz-adv-x="576" 
d="M405 0v321q0 55 -18.5 85.5t-69.5 30.5q-32 0 -58.5 -15t-46 -41.5t-30 -63t-10.5 -78.5v-239h-85v497h83q0 -23 -2 -53.5t-7 -52.5l2 -1q22 53 67 85t109 32q43 0 72 -12.5t46 -34t24.5 -50.5t7.5 -62v-348h-84z" />
    <glyph glyph-name="ntilde" unicode="&#xf1;" horiz-adv-x="576" 
d="M405 0v321q0 55 -18.5 85.5t-69.5 30.5q-32 0 -58.5 -15t-46 -41.5t-30 -63t-10.5 -78.5v-239h-85v497h83q0 -23 -2 -53.5t-7 -52.5l2 -1q22 53 67 85t109 32q43 0 72 -12.5t46 -34t24.5 -50.5t7.5 -62v-348h-84zM418 705l43 -34q-20 -36 -47 -56t-61 -20q-24 0 -41 8.5
t-31 19t-26.5 19t-28.5 8.5q-34 0 -61 -47l-42 34q19 37 46 56.5t61 19.5q24 0 41.5 -8.5t31.5 -19t26.5 -19t28.5 -8.5q33 0 60 47z" />
    <glyph glyph-name="o" unicode="o" horiz-adv-x="544" 
d="M415 252q0 88 -35.5 136t-107.5 48q-28 0 -54 -11t-46 -33.5t-32 -57t-12 -81.5q0 -93 37 -142t108 -49q28 0 54 11.5t45.5 34.5t31 59t11.5 85zM503 257q0 -56 -17 -104.5t-48.5 -84.5t-76 -56.5t-99.5 -20.5q-51 0 -92 15t-70 46.5t-44.5 79t-15.5 113.5
q0 54 16.5 101.5t47.5 83t75.5 56t100.5 20.5q47 0 87.5 -13.5t70.5 -43.5t47.5 -77.5t17.5 -114.5z" />
    <glyph glyph-name="ograve" unicode="&#xf2;" horiz-adv-x="544" 
d="M415 252q0 88 -35.5 136t-107.5 48q-28 0 -54 -11t-46 -33.5t-32 -57t-12 -81.5q0 -93 37 -142t108 -49q28 0 54 11.5t45.5 34.5t31 59t11.5 85zM503 257q0 -56 -17 -104.5t-48.5 -84.5t-76 -56.5t-99.5 -20.5q-51 0 -92 15t-70 46.5t-44.5 79t-15.5 113.5
q0 54 16.5 101.5t47.5 83t75.5 56t100.5 20.5q47 0 87.5 -13.5t70.5 -43.5t47.5 -77.5t17.5 -114.5zM293 572l-146 114l48 56l136 -125z" />
    <glyph glyph-name="oacute" unicode="&#xf3;" horiz-adv-x="544" 
d="M415 252q0 88 -35.5 136t-107.5 48q-28 0 -54 -11t-46 -33.5t-32 -57t-12 -81.5q0 -93 37 -142t108 -49q28 0 54 11.5t45.5 34.5t31 59t11.5 85zM503 257q0 -56 -17 -104.5t-48.5 -84.5t-76 -56.5t-99.5 -20.5q-51 0 -92 15t-70 46.5t-44.5 79t-15.5 113.5
q0 54 16.5 101.5t47.5 83t75.5 56t100.5 20.5q47 0 87.5 -13.5t70.5 -43.5t47.5 -77.5t17.5 -114.5zM258 572l-37 45l136 125l47 -56z" />
    <glyph glyph-name="ocircumflex" unicode="&#xf4;" horiz-adv-x="544" 
d="M415 252q0 88 -35.5 136t-107.5 48q-28 0 -54 -11t-46 -33.5t-32 -57t-12 -81.5q0 -93 37 -142t108 -49q28 0 54 11.5t45.5 34.5t31 59t11.5 85zM503 257q0 -56 -17 -104.5t-48.5 -84.5t-76 -56.5t-99.5 -20.5q-51 0 -92 15t-70 46.5t-44.5 79t-15.5 113.5
q0 54 16.5 101.5t47.5 83t75.5 56t100.5 20.5q47 0 87.5 -13.5t70.5 -43.5t47.5 -77.5t17.5 -114.5zM370 572l-99 85l-99 -85l-37 40l138 130l136 -129z" />
    <glyph glyph-name="otilde" unicode="&#xf5;" horiz-adv-x="544" 
d="M415 252q0 88 -35.5 136t-107.5 48q-28 0 -54 -11t-46 -33.5t-32 -57t-12 -81.5q0 -93 37 -142t108 -49q28 0 54 11.5t45.5 34.5t31 59t11.5 85zM503 257q0 -56 -17 -104.5t-48.5 -84.5t-76 -56.5t-99.5 -20.5q-51 0 -92 15t-70 46.5t-44.5 79t-15.5 113.5
q0 54 16.5 101.5t47.5 83t75.5 56t100.5 20.5q47 0 87.5 -13.5t70.5 -43.5t47.5 -77.5t17.5 -114.5zM403 705l43 -34q-20 -36 -47 -56t-61 -20q-24 0 -41 8.5t-31 19t-26.5 19t-28.5 8.5q-34 0 -61 -47l-42 34q19 37 46 56.5t61 19.5q24 0 41.5 -8.5t31.5 -19t26.5 -19
t28.5 -8.5q33 0 60 47z" />
    <glyph glyph-name="odieresis" unicode="&#xf6;" horiz-adv-x="544" 
d="M415 252q0 88 -35.5 136t-107.5 48q-28 0 -54 -11t-46 -33.5t-32 -57t-12 -81.5q0 -93 37 -142t108 -49q28 0 54 11.5t45.5 34.5t31 59t11.5 85zM503 257q0 -56 -17 -104.5t-48.5 -84.5t-76 -56.5t-99.5 -20.5q-51 0 -92 15t-70 46.5t-44.5 79t-15.5 113.5
q0 54 16.5 101.5t47.5 83t75.5 56t100.5 20.5q47 0 87.5 -13.5t70.5 -43.5t47.5 -77.5t17.5 -114.5zM229 653q0 -22 -14.5 -36.5t-36.5 -14.5t-37 14.5t-15 36.5t15 37t37 15t36.5 -15t14.5 -37zM419 653q0 -22 -14.5 -36.5t-36.5 -14.5t-37 14.5t-15 36.5t15 37t37 15
t36.5 -15t14.5 -37z" />
    <glyph glyph-name="oslash" unicode="&#xf8;" horiz-adv-x="544" 
d="M303 435q-9 2 -18.5 3t-20.5 0q-25 -1 -50 -11.5t-45.5 -32.5t-33 -57.5t-12.5 -85.5t13 -90t39 -63l128 337v0zM421 253q0 57 -16 97.5t-48 61.5l-132 -344q25 -9 55 -8q27 1 52.5 12.5t45 35t31.5 59.5t12 86zM502 257q0 -56 -17 -105t-48 -85t-75 -56.5t-98 -20.5
q-17 0 -34 2.5t-31 7.5l-39 -104l-57 19l41 104q-54 32 -78 91.5t-24 134.5q0 55 16 103t47 83t75 55.5t100 20.5q12 0 25 -1t24 -3l36 93l56 -19l-35 -92q25 -12 46 -31t36.5 -47t24.5 -65t9 -85z" />
    <glyph glyph-name="oe" unicode="&#x153;" horiz-adv-x="874" 
d="M415 252q0 90 -36 137.5t-109 47.5q-26 0 -52 -9.5t-47 -31.5t-34 -57.5t-13 -87.5q0 -41 8 -75.5t26 -60t46 -40t67 -14.5q28 0 54.5 11.5t46 34.5t31.5 59t12 86zM740 319q2 56 -29 90t-85 34q-51 0 -84.5 -34.5t-41.5 -89.5h240v0zM827 299q0 -17 -3 -41h-328
q-3 -105 37.5 -151.5t121.5 -46.5q39 0 78.5 8.5t68.5 22.5l7 -69q-74 -31 -167 -31q-78 0 -125 27.5t-71 76.5q-26 -45 -71.5 -74.5t-113.5 -29.5q-58 0 -99.5 19t-68.5 53t-40 81t-13 102t16 102.5t47 82.5t75.5 55t100.5 20q55 0 104 -23.5t75 -73.5q26 44 69 70.5
t103 26.5q52 0 89 -16.5t61 -45t35.5 -66t11.5 -79.5z" />
    <glyph glyph-name="p" unicode="p" horiz-adv-x="558" 
d="M426 259q0 84 -27.5 130.5t-84.5 46.5q-36 0 -62.5 -18.5t-44 -47.5t-26.5 -64.5t-9 -69.5v-158q20 -9 43.5 -13.5t57.5 -4.5q33 0 61 11.5t48.5 35.5t32 61.5t11.5 90.5zM514 267q0 -65 -17.5 -115.5t-49.5 -85.5t-77.5 -53.5t-101.5 -18.5q-31 0 -52 2.5t-44 7.5v-252
h-85v745h83q0 -22 -2 -52t-7 -52l2 -1q21 54 65 84t104 30q88 0 135 -60.5t47 -178.5z" />
    <glyph glyph-name="thorn" unicode="&#xfe;" horiz-adv-x="558" 
d="M426 258q0 87 -27.5 132.5t-84.5 45.5q-36 0 -62.5 -18.5t-44 -47.5t-26.5 -64.5t-9 -69.5v-159q20 -8 45 -12.5t55 -4.5q33 0 61 11.5t49 35.5t32.5 61.5t11.5 89.5zM514 266q0 -65 -17.5 -115.5t-49.5 -85t-77.5 -53t-102.5 -18.5q-30 0 -54 2t-41 5v-249h-85v978h85
v-220q0 -28 -2 -58t-5 -50l2 -1q20 47 62.5 76t101.5 29q88 0 135.5 -60.5t47.5 -179.5z" />
    <glyph glyph-name="q" unicode="q" horiz-adv-x="558" 
d="M387 427q-44 10 -92 10q-36 0 -66 -11.5t-51.5 -36t-33 -63.5t-11.5 -93q0 -82 27.5 -127t85.5 -45q35 0 61.5 18.5t44 47t26.5 63.5t9 68v169zM387 -248v263q0 17 1 41t6 47l-2 1q-20 -53 -63.5 -83t-100.5 -30q-88 0 -136 58t-48 175q0 133 69 207t192 74q44 0 86 -4
t80 -10v-739h-84z" />
    <glyph glyph-name="r" unicode="r" horiz-adv-x="368" 
d="M342 421q-23 5 -40 5q-69 0 -99.5 -59.5t-30.5 -166.5v-200h-85v497h83q0 -24 -3 -56.5t-9 -63.5l2 -1q17 57 55 94t101 37q8 0 18 -1t17 -3z" />
    <glyph glyph-name="s" unicode="s" horiz-adv-x="426" 
d="M375 143q0 -35 -15 -63t-41.5 -47.5t-63.5 -30.5t-81 -11q-34 0 -64.5 5t-57.5 14l12 75q26 -11 56 -17.5t66 -6.5q41 0 70.5 17.5t29.5 53.5q0 29 -19.5 47t-64.5 35l-31 12q-63 24 -89.5 55.5t-26.5 83.5q0 29 12 55t36 45t59.5 30t82.5 11q25 0 51 -2.5t49 -7.5
l-10 -71q-24 8 -47.5 12t-52.5 4q-50 0 -71 -20.5t-21 -47.5q0 -28 19 -46.5t71 -38.5l33 -13q54 -21 81.5 -51t27.5 -81z" />
    <glyph glyph-name="scaron" unicode="&#x161;" horiz-adv-x="426" 
d="M375 143q0 -35 -15 -63t-41.5 -47.5t-63.5 -30.5t-81 -11q-34 0 -64.5 5t-57.5 14l12 75q26 -11 56 -17.5t66 -6.5q41 0 70.5 17.5t29.5 53.5q0 29 -19.5 47t-64.5 35l-31 12q-63 24 -89.5 55.5t-26.5 83.5q0 29 12 55t36 45t59.5 30t82.5 11q25 0 51 -2.5t49 -7.5
l-10 -71q-24 8 -47.5 12t-52.5 4q-50 0 -71 -20.5t-21 -47.5q0 -28 19 -46.5t71 -38.5l33 -13q54 -21 81.5 -51t27.5 -81zM215 572l-137 129l39 41l99 -85l99 85l38 -39z" />
    <glyph glyph-name="germandbls" unicode="&#xdf;" horiz-adv-x="591" 
d="M549 148q0 -34 -14 -63t-39.5 -50t-62 -33t-82.5 -12q-29 0 -54 3t-44 8l3 75q21 -8 46.5 -12.5t48.5 -4.5q59 0 85 24t26 54q0 27 -14.5 45.5t-37 32.5t-48 27.5t-48 32t-37 44.5t-14.5 65q0 45 22 71t48.5 45.5t48.5 40.5t22 56q0 38 -27.5 56.5t-70.5 18.5
q-62 0 -98 -39.5t-36 -126.5v-506h-85v501q0 64 17.5 109.5t48 73.5t71.5 41t87 13q87 0 133 -37.5t46 -95.5q0 -34 -10.5 -56.5t-26.5 -38.5t-34 -27.5t-34 -24t-26.5 -27.5t-10.5 -38q0 -26 15 -44t37 -32t48.5 -28t48.5 -32.5t37 -44.5t15 -64z" />
    <glyph glyph-name="t" unicode="t" horiz-adv-x="371" 
d="M339 6q-22 -5 -49.5 -9.5t-50.5 -4.5q-38 0 -63.5 8.5t-40.5 26.5t-21.5 46t-6.5 67v291h-104v66h104v162l84 24v-186h142v-66h-142v-259q0 -32 3.5 -52.5t11 -32.5t20 -17t31.5 -5q21 0 39 3t35 8l8 -70v0z" />
    <glyph glyph-name="u" unicode="u" horiz-adv-x="576" 
d="M406 0q0 23 2 53.5t6 52.5l-2 1q-21 -53 -66 -85t-110 -32q-43 0 -71.5 12.5t-46 34t-24.5 50.5t-7 62v348h84v-321q0 -55 18.5 -85.5t69.5 -30.5q32 0 58.5 15t46 41.5t30.5 63t11 78.5v239h84v-497h-83z" />
    <glyph glyph-name="ugrave" unicode="&#xf9;" horiz-adv-x="576" 
d="M406 0q0 23 2 53.5t6 52.5l-2 1q-21 -53 -66 -85t-110 -32q-43 0 -71.5 12.5t-46 34t-24.5 50.5t-7 62v348h84v-321q0 -55 18.5 -85.5t69.5 -30.5q32 0 58.5 15t46 41.5t30.5 63t11 78.5v239h84v-497h-83zM299 572l-146 114l48 56l136 -125z" />
    <glyph glyph-name="uacute" unicode="&#xfa;" horiz-adv-x="576" 
d="M406 0q0 23 2 53.5t6 52.5l-2 1q-21 -53 -66 -85t-110 -32q-43 0 -71.5 12.5t-46 34t-24.5 50.5t-7 62v348h84v-321q0 -55 18.5 -85.5t69.5 -30.5q32 0 58.5 15t46 41.5t30.5 63t11 78.5v239h84v-497h-83zM279 572l-37 45l136 125l47 -56z" />
    <glyph glyph-name="ucircumflex" unicode="&#xfb;" horiz-adv-x="576" 
d="M406 0q0 23 2 53.5t6 52.5l-2 1q-21 -53 -66 -85t-110 -32q-43 0 -71.5 12.5t-46 34t-24.5 50.5t-7 62v348h84v-321q0 -55 18.5 -85.5t69.5 -30.5q32 0 58.5 15t46 41.5t30.5 63t11 78.5v239h84v-497h-83zM386 572l-99 85l-99 -85l-37 40l138 130l136 -129z" />
    <glyph glyph-name="udieresis" unicode="&#xfc;" horiz-adv-x="576" 
d="M406 0q0 23 2 53.5t6 52.5l-2 1q-21 -53 -66 -85t-110 -32q-43 0 -71.5 12.5t-46 34t-24.5 50.5t-7 62v348h84v-321q0 -55 18.5 -85.5t69.5 -30.5q32 0 58.5 15t46 41.5t30.5 63t11 78.5v239h84v-497h-83zM242 653q0 -22 -14.5 -36.5t-36.5 -14.5t-37 14.5t-15 36.5
t15 37t37 15t36.5 -15t14.5 -37zM432 653q0 -22 -14.5 -36.5t-36.5 -14.5t-37 14.5t-15 36.5t15 37t37 15t36.5 -15t14.5 -37z" />
    <glyph glyph-name="v" unicode="v" horiz-adv-x="483" 
d="M284 0h-88l-187 497h95l109 -306q8 -24 15 -46.5t13 -45.5h2q6 21 13 44t15 45l112 309h91z" />
    <glyph glyph-name="w" unicode="w" horiz-adv-x="792" 
d="M614 0h-96l-102 303q-8 23 -14.5 47.5t-13.5 50.5h-1q-8 -33 -17 -63t-19 -62l-86 -276h-95l-153 497h93l80 -276q10 -35 18.5 -67t16.5 -60h1q8 32 16 63.5t18 61.5l88 278h92l90 -275q7 -23 13 -41t10.5 -33t8 -28.5t6.5 -26.5h1q7 31 15 59t19 66l83 279h90z" />
    <glyph glyph-name="x" unicode="x" horiz-adv-x="517" 
d="M385 0l-130 194l-130 -194h-103l185 249l-176 248h104l127 -190l129 190h95l-173 -245l182 -252h-110z" />
    <glyph glyph-name="y" unicode="y" horiz-adv-x="477" 
d="M261 -49q-22 -58 -43.5 -97.5t-47 -63.5t-55.5 -34.5t-69 -10.5q-15 0 -34 2.5t-34 7.5l15 73q13 -6 28.5 -8t32.5 -2q21 0 37.5 5.5t30.5 19.5t27.5 38.5t27.5 62.5l21 56l-188 497h96l98 -268q12 -34 21 -63t17 -58h1q7 26 21 68.5t29 84.5l83 236h92z" />
    <glyph glyph-name="yacute" unicode="&#xfd;" horiz-adv-x="477" 
d="M261 -49q-22 -58 -43.5 -97.5t-47 -63.5t-55.5 -34.5t-69 -10.5q-15 0 -34 2.5t-34 7.5l15 73q13 -6 28.5 -8t32.5 -2q21 0 37.5 5.5t30.5 19.5t27.5 38.5t27.5 62.5l21 56l-188 497h96l98 -268q12 -34 21 -63t17 -58h1q7 26 21 68.5t29 84.5l83 236h92zM232 572l-37 45
l136 125l47 -56z" />
    <glyph glyph-name="ydieresis" unicode="&#xff;" horiz-adv-x="477" 
d="M261 -49q-22 -58 -43.5 -97.5t-47 -63.5t-55.5 -34.5t-69 -10.5q-15 0 -34 2.5t-34 7.5l15 73q13 -6 28.5 -8t32.5 -2q21 0 37.5 5.5t30.5 19.5t27.5 38.5t27.5 62.5l21 56l-188 497h96l98 -268q12 -34 21 -63t17 -58h1q7 26 21 68.5t29 84.5l83 236h92zM198 653
q0 -22 -14.5 -36.5t-36.5 -14.5t-37 14.5t-15 36.5t15 37t37 15t36.5 -15t14.5 -37zM388 653q0 -22 -14.5 -36.5t-36.5 -14.5t-37 14.5t-15 36.5t15 37t37 15t36.5 -15t14.5 -37z" />
    <glyph glyph-name="z" unicode="z" horiz-adv-x="447" 
d="M48 0v59l243 363h-238v75h337v-59l-240 -360h245v-78h-347z" />
    <glyph glyph-name="zcaron" unicode="&#x17e;" horiz-adv-x="447" 
d="M48 0v59l243 363h-238v75h337v-59l-240 -360h245v-78h-347zM225 572l-137 129l39 41l99 -85l99 85l38 -39z" />
    <glyph glyph-name="ordfeminine" unicode="&#xaa;" horiz-adv-x="387" 
d="M246 495q-69 0 -97.5 -16t-28.5 -44q0 -18 11.5 -28.5t32.5 -10.5q22 0 37.5 10t25.5 24.5t14.5 29.5t4.5 26v9zM246 346q0 11 1 25.5t4 27.5l-2 1q-9 -24 -38 -42.5t-63 -18.5q-51 0 -75 23.5t-24 60.5q0 57 52 89t145 32v19q0 10 -2 21t-9 20t-20 15t-35 6
q-29 0 -56 -7.5t-49 -18.5l-6 63q25 10 56 15.5t65 5.5q37 0 61 -9.5t38.5 -25t20.5 -35.5t6 -41v-139v-57q0 -19 1 -30h-71zM59 215v68h265v-68h-265z" />
    <glyph glyph-name="ordmasculine" unicode="&#xba;" horiz-adv-x="418" 
d="M289 516q0 20 -4 39t-13.5 33.5t-25 23.5t-38.5 9q-15 0 -30 -6t-27 -19t-19 -33.5t-7 -49.5q0 -20 3.5 -39.5t12.5 -35t24 -25t39 -9.5q38 0 61.5 26.5t23.5 85.5zM366 516q0 -40 -12.5 -72.5t-34.5 -55.5t-53 -35.5t-67 -12.5q-33 0 -61 9.5t-48 30t-31 53t-11 79.5
q0 38 12 69.5t34 54.5t52 35.5t65 12.5q28 0 56 -7.5t50 -26.5t35.5 -51.5t13.5 -82.5zM61 215v68h291v-68h-291z" />
    <glyph glyph-name="grave.cap" horiz-adv-x="500" 
d="M319 719l-184 71l29 59l175 -89z" />
    <glyph glyph-name="grave" unicode="`" horiz-adv-x="368" 
d="M242 572l-146 114l48 56l136 -125z" />
    <glyph glyph-name="acute.cap" horiz-adv-x="500" 
d="M272 719l-21 39l175 90l29 -58z" />
    <glyph glyph-name="acute" unicode="&#xb4;" horiz-adv-x="388" 
d="M136 572l-37 45l136 125l47 -56z" />
    <glyph glyph-name="circumflex.cap" horiz-adv-x="500" 
d="M433 717l-129 64l-125 -64l-21 42l148 83l152 -80z" />
    <glyph glyph-name="circumflex" unicode="&#x2c6;" horiz-adv-x="434" 
d="M313 572l-99 85l-99 -85l-37 40l138 130l136 -129z" />
    <glyph glyph-name="caron.cap" horiz-adv-x="500" 
d="M252 720l-152 80l25 45l128 -64l126 64l21 -42z" />
    <glyph glyph-name="caron" unicode="&#x2c7;" horiz-adv-x="434" 
d="M212 572l-137 129l39 41l99 -85l99 85l38 -39z" />
    <glyph glyph-name="tilde.cap" horiz-adv-x="500" 
d="M468 788q-17 -24 -40.5 -39.5t-56.5 -15.5q-22 0 -38 6t-29.5 13.5t-26.5 13.5t-31 6q-19 0 -33 -10t-25 -25l-35 35q17 26 40.5 41.5t58.5 15.5q21 0 36.5 -6t29.5 -13t27.5 -13t30.5 -6q19 0 33.5 9.5t25.5 24.5l33 -37v0z" />
    <glyph glyph-name="tilde" unicode="&#x2dc;" horiz-adv-x="500" 
d="M373 705l43 -34q-20 -36 -47 -56t-61 -20q-24 0 -41 8.5t-31 19t-26.5 19t-28.5 8.5q-34 0 -61 -47l-42 34q19 37 46 56.5t61 19.5q24 0 41.5 -8.5t31.5 -19t26.5 -19t28.5 -8.5q33 0 60 47z" />
    <glyph glyph-name="dieresis.cap" horiz-adv-x="500" 
d="M205 781q0 -20 -15 -35t-35 -15t-34.5 15t-14.5 35t14.5 34.5t34.5 14.5t35 -14.5t15 -34.5zM422 781q0 -20 -14.5 -35t-35.5 -15q-20 0 -34.5 15t-14.5 35t14.5 34.5t34.5 14.5q21 0 35.5 -14.5t14.5 -34.5z" />
    <glyph glyph-name="dieresis" unicode="&#xa8;" horiz-adv-x="546" 
d="M221 653q0 -22 -14.5 -36.5t-36.5 -14.5t-37 14.5t-15 36.5t15 37t37 15t36.5 -15t14.5 -37zM411 653q0 -22 -14.5 -36.5t-36.5 -14.5t-37 14.5t-15 36.5t15 37t37 15t36.5 -15t14.5 -37z" />
    <glyph glyph-name="dieresis.narrow" horiz-adv-x="291" 
d="M286 655q0 -22 -15 -37t-37 -15t-37 15t-15 37t15 37t37 15t37 -15t15 -37zM108 655q0 -22 -14.5 -37t-36.5 -15t-37 15t-15 37t15 37t37 15t36.5 -15t14.5 -37z" />
    <glyph glyph-name="macron" unicode="&#xaf;" horiz-adv-x="395" 
d="M73 619v63h249v-63h-249z" />
    <glyph glyph-name="macron" unicode="&#x2c9;" horiz-adv-x="395" 
d="M73 619v63h249v-63h-249z" />
    <glyph glyph-name="breve" unicode="&#x2d8;" horiz-adv-x="404" 
d="M325 718q0 -26 -7.5 -49.5t-22.5 -41.5t-38.5 -29t-56.5 -11t-56 11t-37.5 29.5t-21 42t-6.5 48.5h58q0 -27 16 -47t48 -20q30 0 47 17.5t17 49.5h60v0z" />
    <glyph glyph-name="ring.cap" horiz-adv-x="385" 
d="M243 766q0 22 -14.5 37t-35.5 15q-22 0 -36.5 -15t-14.5 -37q0 -21 14.5 -36.5t36.5 -15.5q21 0 35.5 15.5t14.5 36.5zM298 768q0 -21 -8.5 -39.5t-23 -32.5t-34 -22.5t-40.5 -8.5q-44 0 -74 27.5t-30 72.5q0 21 8.5 40t23 32.5t33.5 21.5t40 8q45 0 75 -28t30 -71z" />
    <glyph glyph-name="ring" unicode="&#x2da;" horiz-adv-x="385" 
d="M249 662q0 23 -16.5 40t-40.5 17q-23 0 -39 -17t-16 -40t16 -40t39 -17q24 0 40.5 17t16.5 40zM305 662q0 -22 -9 -41.5t-24.5 -34t-36 -23t-43.5 -8.5q-47 0 -79 30t-32 77q0 23 9 43t24 34.5t35 22.5t43 8q48 0 80.5 -30.5t32.5 -77.5z" />
    <glyph glyph-name="hungarumlaut" unicode="&#x2dd;" horiz-adv-x="491" 
d="M120 576l-45 41l116 129l55 -50zM288 574l-39 45l135 121l49 -55z" />
    <glyph glyph-name="dotaccent" unicode="&#x2d9;" horiz-adv-x="283" 
d="M197 656q0 -23 -16.5 -39t-39.5 -16t-39.5 16t-16.5 39t16.5 39.5t39.5 16.5t39.5 -16.5t16.5 -39.5z" />
    <glyph glyph-name="cedilla" unicode="&#xb8;" horiz-adv-x="400" 
d="M259 -41q38 -50 29.5 -97t-51.5 -97h-70q20 25 32 45.5t14.5 40t-4 39t-24.5 41.5l74 28v0z" />
    <glyph glyph-name="ogonek" unicode="&#x2db;" horiz-adv-x="505" 
d="M172 0q-48 -28 -69.5 -55.5t-21.5 -51.5q0 -17 9.5 -25t24.5 -8q27 0 48 32l38 -36q-20 -33 -50.5 -50t-65.5 -17q-40 0 -63.5 19.5t-23.5 58.5q0 38 25 76t67 65z" />
    <glyph glyph-name="Delta" unicode="&#x394;" horiz-adv-x="607" 
d="M29 0v63l221 612h105l223 -612v-63h-549zM319 524q-7 20 -11.5 37.5t-7.5 34.5h-2q-8 -36 -20 -74l-157 -445h356z" />
    <glyph glyph-name="Delta" unicode="&#x2206;" horiz-adv-x="607" 
d="M29 0v63l221 612h105l223 -612v-63h-549zM319 524q-7 20 -11.5 37.5t-7.5 34.5h-2q-8 -36 -20 -74l-157 -445h356z" />
    <glyph glyph-name="Omega" unicode="&#x3a9;" horiz-adv-x="721" 
d="M436 0v71q32 27 57.5 54t43.5 59t28 71t10 88q0 58 -13.5 106.5t-40.5 84t-67.5 55.5t-94.5 20q-45 0 -84 -18t-68 -51.5t-45.5 -82.5t-16.5 -111q0 -46 7.5 -84t24.5 -70.5t43.5 -61t64.5 -58.5v-72h-241v73h145q-62 44 -99 111t-37 159q0 81 25 144.5t67.5 107
t100 66.5t123.5 23q63 0 117.5 -20t94.5 -61.5t63 -104t23 -146.5q0 -48 -11 -89.5t-30.5 -76t-44.5 -62.5t-54 -51h150v-73h-241z" />
    <glyph glyph-name="Omega" unicode="&#x2126;" horiz-adv-x="721" 
d="M436 0v71q32 27 57.5 54t43.5 59t28 71t10 88q0 58 -13.5 106.5t-40.5 84t-67.5 55.5t-94.5 20q-45 0 -84 -18t-68 -51.5t-45.5 -82.5t-16.5 -111q0 -46 7.5 -84t24.5 -70.5t43.5 -61t64.5 -58.5v-72h-241v73h145q-62 44 -99 111t-37 159q0 81 25 144.5t67.5 107
t100 66.5t123.5 23q63 0 117.5 -20t94.5 -61.5t63 -104t23 -146.5q0 -48 -11 -89.5t-30.5 -76t-44.5 -62.5t-54 -51h150v-73h-241z" />
    <glyph glyph-name="mu" unicode="&#xb5;" horiz-adv-x="587" 
d="M549 -5q-11 -1 -19.5 -1.5t-16.5 -0.5q-57 0 -78.5 29.5t-18.5 83.5h-1q-20 -51 -62.5 -82.5t-102.5 -31.5q-29 0 -51 9t-35 27l10 -275h-87v744h85v-328q0 -55 21 -81t66 -26q32 0 59 14.5t46 41t29.5 62.5t10.5 80v237h85v-326q0 -34 3 -55t9.5 -32.5t18 -15.5t29.5 -4
v-69v0z" />
    <glyph glyph-name="mu" unicode="&#x3bc;" horiz-adv-x="587" 
d="M549 -5q-11 -1 -19.5 -1.5t-16.5 -0.5q-57 0 -78.5 29.5t-18.5 83.5h-1q-20 -51 -62.5 -82.5t-102.5 -31.5q-29 0 -51 9t-35 27l10 -275h-87v744h85v-328q0 -55 21 -81t66 -26q32 0 59 14.5t46 41t29.5 62.5t10.5 80v237h85v-326q0 -34 3 -55t9.5 -32.5t18 -15.5t29.5 -4
v-69v0z" />
    <glyph glyph-name="pi" unicode="&#x3c0;" horiz-adv-x="634" 
d="M474 427q0 -100 5 -167.5t13 -110.5q10 -49 22.5 -67t33.5 -18q10 0 21.5 1.5t21.5 4.5l10 -69q-27 -8 -67 -8q-27 0 -47.5 7t-35.5 23t-26 42.5t-18 64.5q-10 49 -14.5 123.5t-4.5 173.5h-169q2 -108 -12.5 -216.5t-49.5 -215.5l-95 10q38 109 57.5 212t17.5 210h-124
v70h586v-70h-125z" />
    <glyph glyph-name="exclam" unicode="!" horiz-adv-x="319" 
d="M226 48q0 -24 -16.5 -40.5t-40.5 -16.5q-25 0 -41.5 16.5t-16.5 40.5t16.5 40.5t41.5 16.5q24 0 40.5 -16.5t16.5 -40.5zM205 165h-71l-15 541h101z" />
    <glyph glyph-name="exclamdown" unicode="&#xa1;" horiz-adv-x="319" 
d="M103 -208l13 541h70l13 -541h-96zM210 450q0 -24 -17 -40t-42 -16q-24 0 -40.5 16t-16.5 40t16.5 40.5t40.5 16.5q25 0 42 -16.5t17 -40.5z" />
    <glyph glyph-name="question" unicode="?" horiz-adv-x="445" 
d="M251 48q0 -24 -16.5 -40.5t-41.5 -16.5q-24 0 -40.5 16.5t-16.5 40.5t16.5 40.5t40.5 16.5q25 0 41.5 -16.5t16.5 -40.5zM393 525q0 -41 -16.5 -70t-40 -53t-49 -46t-44 -48.5t-25 -60.5t9.5 -82h-80q-17 51 -12 89t22 67.5t42 52.5t48 44.5t39 44t16 50.5q0 60 -57 91
t-164 31l7 75q76 0 133 -14.5t95 -39t57 -58.5t19 -73z" />
    <glyph glyph-name="questiondown" unicode="&#xbf;" horiz-adv-x="445" 
d="M357 -212q-76 0 -133 14.5t-95 39.5t-57 59t-19 73q0 40 16.5 69t40 53t49.5 46t44.5 48.5t24.5 60.5t-9 82h80q17 -51 12 -89t-22 -67.5t-42 -52.5t-48 -44.5t-39 -44t-16 -50.5q0 -60 57 -91t163 -31zM311 450q0 -23 -16.5 -39.5t-41.5 -16.5q-24 0 -40.5 16.5
t-16.5 39.5q0 24 16.5 40.5t40.5 16.5q25 0 41.5 -16.5t16.5 -40.5z" />
    <glyph glyph-name="comma" unicode="," horiz-adv-x="225" 
d="M110 108q27 0 43.5 -21t15 -56.5t-26 -82.5t-80.5 -99l-36 32q24 25 36.5 47t17 39.5t1 31.5t-11.5 24q-10 13 -11.5 27.5t4.5 27.5t18.5 21.5t29.5 8.5z" />
    <glyph glyph-name="semicolon" unicode=";" horiz-adv-x="285" 
d="M157 108q26 0 43 -21t15.5 -56.5t-26 -82.5t-80.5 -99l-37 32q24 25 36.5 47t17 39.5t1 31.5t-11.5 24q-10 13 -11 27.5t5 27.5t18.5 21.5t29.5 8.5zM217 344q0 -25 -17.5 -42t-41.5 -17q-26 0 -43 17t-17 42t17 42t43 17q24 0 41.5 -17t17.5 -42z" />
    <glyph glyph-name="semicolon" unicode="&#x37e;" horiz-adv-x="285" 
d="M157 108q26 0 43 -21t15.5 -56.5t-26 -82.5t-80.5 -99l-37 32q24 25 36.5 47t17 39.5t1 31.5t-11.5 24q-10 13 -11 27.5t5 27.5t18.5 21.5t29.5 8.5zM217 344q0 -25 -17.5 -42t-41.5 -17q-26 0 -43 17t-17 42t17 42t43 17q24 0 41.5 -17t17.5 -42z" />
    <glyph glyph-name="colon" unicode=":" horiz-adv-x="285" 
d="M217 51q0 -25 -17.5 -42.5t-41.5 -17.5q-26 0 -43 17.5t-17 42.5q0 24 17 41.5t43 17.5q24 0 41.5 -17.5t17.5 -41.5zM217 344q0 -25 -17.5 -42t-41.5 -17q-26 0 -43 17t-17 42t17 42t43 17q24 0 41.5 -17t17.5 -42z" />
    <glyph glyph-name="period" unicode="." horiz-adv-x="225" 
d="M171 51q0 -25 -17 -42.5t-42 -17.5t-42 17.5t-17 42.5q0 24 17 41.5t42 17.5t42 -17.5t17 -41.5z" />
    <glyph glyph-name="ellipsis" unicode="&#x2026;" horiz-adv-x="658" 
d="M169 49q0 -24 -17 -41t-41 -17t-41 17t-17 41t17 41t41 17t41 -17t17 -41zM381 49q0 -24 -17 -41t-41 -17t-41 17t-17 41t17 41t41 17t41 -17t17 -41zM593 49q0 -24 -16.5 -41t-41.5 -17q-24 0 -41 17t-17 41t17 41t41 17q25 0 41.5 -17t16.5 -41z" />
    <glyph glyph-name="quoteleft" unicode="&#x2018;" horiz-adv-x="241" 
d="M199 716q-47 -51 -53.5 -86t10.5 -56q10 -13 11 -28t-5 -27.5t-18.5 -21t-29.5 -8.5q-26 0 -43 21t-15.5 57t26 83t80.5 99l37 -33v0z" />
    <glyph glyph-name="quoteright" unicode="&#x2019;" horiz-adv-x="241" 
d="M125 742q26 0 43 -21t15.5 -57t-26 -83t-80.5 -99l-37 33q24 26 36.5 47.5t17 39t1 31t-11.5 24.5q-10 13 -11 27.5t5 27.5t18.5 21.5t29.5 8.5z" />
    <glyph glyph-name="quotedblleft" unicode="&#x201c;" horiz-adv-x="427" 
d="M199 716q-47 -51 -53.5 -86t10.5 -56q10 -13 11 -28t-5 -27.5t-18.5 -21t-29.5 -8.5q-26 0 -43 21t-15.5 57t26 83t80.5 99l37 -33v0zM385 716q-47 -51 -53.5 -86t10.5 -56q10 -13 11 -28t-5 -27.5t-18.5 -21t-29.5 -8.5q-26 0 -43 21t-15.5 57t26 83t80.5 99l37 -33v0z
" />
    <glyph glyph-name="quotedblright" unicode="&#x201d;" horiz-adv-x="427" 
d="M125 742q26 0 43 -21t15.5 -57t-26 -83t-80.5 -99l-37 33q24 26 36.5 47.5t17 39t1 31t-11.5 24.5q-10 13 -11 27.5t5 27.5t18.5 21.5t29.5 8.5zM310 742q27 0 44 -21t15.5 -57t-26 -83t-81.5 -99l-36 33q24 26 36.5 47.5t17 39t1 31t-11.5 24.5q-10 13 -11.5 28
t4.5 27.5t18.5 21t29.5 8.5z" />
    <glyph glyph-name="quotesinglbase" unicode="&#x201a;" horiz-adv-x="241" 
d="M125 108q26 0 43 -21t15.5 -56.5t-26 -82.5t-80.5 -99l-37 32q24 25 36.5 47t17 39.5t1 31.5t-11.5 24q-10 13 -11 27.5t5 27.5t18.5 21.5t29.5 8.5z" />
    <glyph glyph-name="quotedblbase" unicode="&#x201e;" horiz-adv-x="427" 
d="M125 108q26 0 43 -21t15.5 -56.5t-26 -82.5t-80.5 -99l-37 32q24 25 36.5 47t17 39.5t1 31.5t-11.5 24q-10 13 -11 27.5t5 27.5t18.5 21.5t29.5 8.5zM310 108q27 0 44 -21t15.5 -56.5t-26 -82.5t-81.5 -99l-36 32q24 25 36.5 47t17 39.5t1 31.5t-11.5 24
q-10 13 -11.5 27.5t4.5 27.5t18.5 21.5t29.5 8.5z" />
    <glyph glyph-name="guilsinglleft" unicode="&#x2039;" horiz-adv-x="313" 
d="M139 254l99 -155l-65 -38l-118 192l121 195l63 -36z" />
    <glyph glyph-name="guilsinglright" unicode="&#x203a;" horiz-adv-x="313" 
d="M137 61l-63 37l100 157l-99 156l65 37l118 -192z" />
    <glyph glyph-name="guillemotleft" unicode="&#xab;" horiz-adv-x="506" 
d="M139 255l95 -158l-66 -37l-112 194l115 197l64 -37zM328 255l102 -155l-63 -38l-122 192l125 195l61 -37z" />
    <glyph glyph-name="guillemotright" unicode="&#xbb;" horiz-adv-x="506" 
d="M136 63l-62 37l103 156l-102 155l64 37l122 -191zM334 61l-63 36l96 159l-95 156l65 38l113 -193z" />
    <glyph glyph-name="slash" unicode="/" horiz-adv-x="418" 
d="M125 0h-82l258 675h81z" />
    <glyph glyph-name="bar" unicode="|" horiz-adv-x="284" 
d="M108 -247v1000h67v-1000h-67z" />
    <glyph glyph-name="brokenbar" unicode="&#xa6;" horiz-adv-x="284" 
d="M108 -247v378h67v-378h-67zM108 385v368h67v-368h-67z" />
    <glyph glyph-name="backslash" unicode="\" horiz-adv-x="408" 
d="M293 0l-258 675h77l261 -675h-80z" />
    <glyph glyph-name="hyphen" unicode="-" horiz-adv-x="329" 
d="M47 217v67h235v-67h-235z" />
    <glyph glyph-name="hyphen" unicode="&#xad;" horiz-adv-x="329" 
d="M47 217v67h235v-67h-235z" />
    <glyph glyph-name="endash" unicode="&#x2013;" 
d="M50 252v74h450v-74h-450z" />
    <glyph glyph-name="emdash" unicode="&#x2014;" horiz-adv-x="1000" 
d="M0 252v74h1000v-74h-1000z" />
    <glyph glyph-name="underscore" unicode="_" 
d="M0 -248v67h550v-67h-550z" />
    <glyph glyph-name="bullet" unicode="&#x2022;" 
d="M363 292q0 -24 -9 -45.5t-25 -37.5t-37.5 -25t-45.5 -9t-45 9t-37 25t-25 37.5t-9 45.5t9 45.5t25 37t37 25t45 9.5t45.5 -9.5t37.5 -25t25 -37t9 -45.5z" />
    <glyph glyph-name="periodcentered" unicode="&#xb7;" horiz-adv-x="230" 
d="M176 288q0 -26 -17.5 -43.5t-43.5 -17.5t-44 17.5t-18 43.5t18 44t44 18t43.5 -18t17.5 -44z" />
    <glyph glyph-name="periodcentered" unicode="&#x2219;" horiz-adv-x="230" 
d="M176 288q0 -26 -17.5 -43.5t-43.5 -17.5t-44 17.5t-18 43.5t18 44t44 18t43.5 -18t17.5 -44z" />
    <glyph glyph-name="parenleft" unicode="(" horiz-adv-x="303" 
d="M218 -206q-45 70 -73 134.5t-44 125t-22 118t-6 112.5q0 54 7 113t24 121.5t45 128t70 132.5l60 -30q-61 -105 -92.5 -221t-31.5 -239q0 -128 30.5 -243t94.5 -221z" />
    <glyph glyph-name="parenright" unicode=")" horiz-adv-x="303" 
d="M235 286q0 -54 -6.5 -112t-23 -119.5t-44.5 -126.5t-72 -134l-61 31q63 106 94 220t31 242q0 124 -31 240t-93 222l61 31q42 -68 70 -133t44.5 -127.5t23.5 -121t7 -112.5z" />
    <glyph glyph-name="bracketleft" unicode="[" horiz-adv-x="321" 
d="M88 -198v968h195v-64h-116v-838h116v-66h-195z" />
    <glyph glyph-name="bracketright" unicode="]" horiz-adv-x="321" 
d="M38 -198v66h116v838h-116v64h195v-968h-195z" />
    <glyph glyph-name="braceleft" unicode="{" horiz-adv-x="339" 
d="M288 -198q-83 0 -117.5 48t-34.5 143v181q0 58 -24 82t-83 27v68q30 1 50.5 7t33 18t18 32.5t5.5 50.5v121q0 42 7.5 76.5t25 60t46.5 39.5t73 14h18v-64q-26 0 -44 -6t-28.5 -20.5t-15 -38t-4.5 -58.5v-120q0 -66 -23 -101t-70 -44v-1q46 -8 69.5 -45t23.5 -102v-179
q0 -35 4.5 -59t15 -38t28.5 -20t44 -6v-66h-18z" />
    <glyph glyph-name="braceright" unicode="}" horiz-adv-x="335" 
d="M315 283q-59 -3 -83 -26.5t-24 -82.5v-181q0 -95 -34 -143t-118 -48h-18v66q26 0 44 6t28.5 20t15 38t4.5 59v179q0 65 24 102t69 45v1q-47 7 -70 42.5t-23 98.5v124q0 70 -20 96.5t-72 26.5v64h18q43 0 72.5 -14t47 -39.5t25 -60t7.5 -76.5v-117q0 -32 5.5 -53t18 -33.5
t33 -18.5t50.5 -7v-68v0z" />
    <glyph glyph-name="asterisk" unicode="*" horiz-adv-x="372" 
d="M295 480l-91 66l10 -112h-63l10 112l-91 -66l-31 55l103 46l-103 47l32 55l91 -65l-10 112h63l-11 -112l92 65l31 -55l-103 -46l103 -46z" />
    <glyph glyph-name="dagger" unicode="&#x2020;" horiz-adv-x="468" 
d="M267 486l18 -147l-23 -342h-57l-23 342l19 147h-159v66h159l-19 178h103l-18 -178h158v-66h-158z" />
    <glyph glyph-name="daggerdbl" unicode="&#x2021;" horiz-adv-x="468" 
d="M267 185l18 -185h-104l19 185h-158v66h158l-18 120l18 120h-158v66h158l-18 173h103l-18 -173h158v-66h-158l18 -120l-18 -120h158v-66h-158z" />
    <glyph glyph-name="section" unicode="&#xa7;" horiz-adv-x="492" 
d="M336 209q0 28 -14 55t-35.5 55t-49 58.5t-54.5 65.5q-14 -11 -22.5 -30.5t-8.5 -45.5q0 -24 10.5 -48t30.5 -51.5t48.5 -60t64.5 -72.5q13 11 21.5 31.5t8.5 42.5zM415 219q0 -41 -18.5 -76t-46.5 -58q12 -18 21.5 -44.5t9.5 -53.5q0 -28 -10.5 -56t-32.5 -50.5
t-57.5 -36.5t-84.5 -14q-18 0 -38 2.5t-35 6.5l7 76q16 -5 34 -8.5t37 -3.5q49 0 70 24t21 59q0 27 -16 54t-40.5 55t-53 58t-53 62.5t-40.5 67.5t-16 75q0 43 18.5 78.5t46.5 58.5q-12 17 -20 42.5t-8 48.5q0 31 10.5 59.5t32 50.5t54.5 34.5t79 12.5q17 0 35.5 -2t32.5 -5
l-7 -72q-16 5 -31.5 7t-33.5 2q-44 0 -63.5 -21.5t-19.5 -61.5q0 -26 16 -52t40 -54t52 -58.5t52 -63t40 -68.5t16 -75z" />
    <glyph glyph-name="paragraph" unicode="&#xb6;" horiz-adv-x="574" 
d="M288 250q-57 0 -98.5 17t-68.5 46t-40 68t-13 83q0 46 16 84.5t44.5 66.5t69 44t90.5 16v-425v0zM440 610v-706h-150v65h73v706h149v-65h-72z" />
    <glyph glyph-name="asciicircum" unicode="^" 
d="M414 344l-144 269l-138 -269l-55 29l162 302h65l169 -301z" />
    <glyph glyph-name="asciitilde" unicode="~" 
d="M494 564q0 -64 -34.5 -104t-94.5 -40q-42 0 -66.5 17.5t-41.5 39t-33 39t-42 17.5q-32 0 -46 -26.5t-15 -66.5h-63v9q0 65 34.5 105t94.5 40q42 0 66.5 -17.5t41.5 -39t33 -39t42 -17.5q32 0 46 26t15 66h63v-9v0z" />
    <glyph glyph-name="quotesingle" unicode="'" horiz-adv-x="197" 
d="M129 503h-62l-14 227h90z" />
    <glyph glyph-name="quotedbl" unicode="&#x22;" horiz-adv-x="361" 
d="M129 503h-62l-14 227h90zM294 503h-63l-14 227h90z" />
    <glyph glyph-name="ampersand" unicode="&#x26;" horiz-adv-x="795" 
d="M481 134q-32 25 -65 53t-64.5 56t-59.5 55t-50 51q-54 -44 -76 -80.5t-22 -72.5q0 -27 10 -51.5t29 -43t46 -29t61 -10.5q60 0 109 21.5t82 50.5zM352 588q0 36 -21 59.5t-60 23.5q-37 0 -60 -22t-23 -57q0 -51 73 -141q45 35 68 68.5t23 68.5zM682 -20
q-36 26 -74.5 54.5t-67.5 52.5q-50 -43 -116 -70t-149 -27q-53 0 -94 15t-68.5 41t-41.5 62t-14 78q0 32 9.5 60t27 54t43.5 50.5t59 50.5q-48 59 -70 104.5t-22 80.5q0 31 11.5 58.5t33.5 48t55 32.5t75 12q77 0 117 -38.5t40 -98.5q0 -49 -29.5 -94.5t-100.5 -103.5
q22 -24 49.5 -50t57.5 -53t62 -53.5t62 -50.5q34 48 54 112t15 142h85q2 -86 -22 -163.5t-71 -137.5q38 -29 74.5 -56t64.5 -46z" />
    <glyph glyph-name="at" unicode="@" horiz-adv-x="836" 
d="M482 441q-14 3 -28 4t-29 1q-26 0 -44.5 -13t-31.5 -35.5t-19 -51.5t-6 -60q0 -67 37 -67q16 0 33 13.5t32 37.5t27.5 57t20.5 72l8 42v0zM764 392q0 -50 -15.5 -93t-43 -75t-65 -50.5t-82.5 -18.5q-24 0 -41 8t-28 21.5t-15.5 31t-2.5 35.5h-2q-4 -15 -16.5 -32t-30 -31
t-38 -23.5t-41.5 -9.5q-45 0 -67.5 30t-22.5 87q0 49 12 91t35.5 73t58.5 48.5t80 17.5q32 0 63 -2.5t57 -7.5l-27 -168q-10 -60 1.5 -84t39.5 -24q25 0 46.5 13t37 36t24.5 54.5t9 68.5q0 42 -14.5 83.5t-44.5 75t-76.5 54t-110.5 20.5q-62 0 -116 -24t-94.5 -66t-64 -99.5
t-23.5 -124.5q0 -59 17.5 -110t51.5 -89.5t84 -60.5t114 -22q37 0 72.5 5.5t67.5 16.5l12 -64q-36 -11 -80.5 -17t-81.5 -6q-78 0 -139.5 26t-104.5 71.5t-65.5 108t-22.5 134.5q0 83 30 153.5t81.5 122t119.5 80.5t145 29t136.5 -23.5t99.5 -63.5t60.5 -93.5t20.5 -112.5z
" />
    <glyph glyph-name="copyright" unicode="&#xa9;" horiz-adv-x="755" 
d="M474 175q-46 -17 -98 -17q-42 0 -71.5 13t-49 36t-28.5 54.5t-9 68.5q0 36 9.5 69t30 58.5t53.5 40.5t81 15q23 0 42 -3.5t36 -9.5l-7 -61q-32 16 -73 16q-27 0 -46 -9.5t-31 -26t-17 -38.5t-5 -48q0 -55 23 -84.5t72 -29.5q43 0 79 15l9 -59v0zM643 334q0 55 -21 104.5
t-57 86t-85 58t-104 21.5q-56 0 -104.5 -21t-84.5 -57t-57 -85t-21 -105t21 -105t57 -86t84.5 -58.5t104.5 -21.5q55 0 104 21t85 58t57 85.5t21 104.5zM711 336q0 -69 -26.5 -130t-72 -106.5t-106.5 -72t-130 -26.5q-71 0 -132.5 26t-106.5 71t-71 106t-26 130
q0 70 26.5 131t72 106t106.5 71t131 26t131 -25.5t106.5 -70.5t71.5 -105.5t26 -130.5z" />
    <glyph glyph-name="uni2117" unicode="&#x2117;" horiz-adv-x="755" 
d="M376 669q70 0 131 -26t106 -71t71 -106t26 -130t-26 -130t-71.5 -106.5t-106.5 -72t-130 -26.5q-71 0 -132.5 26t-106.5 71t-70.5 106t-25.5 130t26 130t71.5 106.5t106.5 72t131 26.5zM376 607q-56 0 -105 -21.5t-85.5 -58t-57.5 -86t-21 -105.5t21 -106t57.5 -87
t85.5 -58.5t105 -21.5t105 21t85 58t57 86.5t21 105.5t-21 105.5t-57 87t-85 59t-105 21.5zM531 394q0 -29 -12 -53.5t-34 -41.5t-51.5 -26.5t-63.5 -9.5h-22.5t-17.5 2v-109h-68v351q32 1 60 1.5t56 0.5q74 0 113.5 -30.5t39.5 -84.5zM461 388q0 32 -22.5 49.5t-70.5 17.5
h-20t-18 -1v-133q8 -1 17.5 -1.5t23.5 -0.5q41 0 65.5 18.5t24.5 50.5z" />
    <glyph glyph-name="registered" unicode="&#xae;" horiz-adv-x="562" 
d="M313 581q0 14 -8 21t-28 7h-22v-64h15q24 0 33.5 11t9.5 25zM314 418l-55 96h-4v-96h-47v228h77q42 0 60 -16.5t18 -42.5q0 -29 -15 -45t-40 -21q8 -10 20 -30l44 -73h-58zM441 529q0 33 -12.5 63t-34 52.5t-51 36t-62.5 13.5t-62.5 -13t-51.5 -35t-34.5 -51.5
t-12.5 -62.5t12.5 -63t34.5 -52.5t51.5 -36t62.5 -13.5t62.5 13t51 35t34 51.5t12.5 62.5zM499 531q0 -45 -17.5 -84.5t-47 -69t-69 -46.5t-84.5 -17q-46 0 -86 16.5t-69.5 46t-46.5 69t-17 85.5q0 45 17 84.5t47 69t70 46.5t85 17q46 0 85.5 -17t69 -46t46.5 -68.5
t17 -85.5z" />
    <glyph glyph-name="trademark" unicode="&#x2122;" horiz-adv-x="700" 
d="M187 623v-229h-66v229h-75v52h215v-52h-74zM581 394l-23 151l-7 55l-12 -47l-47 -159h-67l-46 161l-11 45l-3 -37l-25 -169h-61l44 281h83l46 -158l11 -47l9 42l49 163h82l43 -281h-65z" />
    <glyph glyph-name="servicemark" unicode="&#x2120;" horiz-adv-x="700" 
d="M580 394l-22 151l-7 54l-12 -47l-47 -158h-67l-46 160l-11 45l-3 -37l-25 -168h-61l44 281h83l46 -158l11 -46l9 42l48 162h83l43 -281h-66zM238 481q0 -41 -31 -66t-87 -25q-17 0 -33 2t-30 5l5 52q27 -12 61 -12q20 0 34 8.5t14 28.5t-18.5 28.5t-40.5 17.5t-40.5 24.5
t-18.5 49.5q0 38 29 62t83 24q25 0 53 -5l-4 -48q-22 7 -50 7q-47 0 -47 -34q0 -12 9 -19.5t22.5 -13.5t29 -12t29 -15t22.5 -23t9 -36z" />
    <glyph glyph-name="degree" unicode="&#xb0;" horiz-adv-x="374" 
d="M249 611q0 12 -3 24t-10.5 22.5t-20 17t-30.5 6.5q-26 0 -44.5 -19t-18.5 -51q0 -33 17.5 -51t44.5 -18q29 0 47 19t18 50zM316 612q0 -29 -11.5 -52.5t-30 -40t-43 -25t-50.5 -8.5q-58 0 -92 33.5t-34 90.5q0 30 11.5 53.5t30 39.5t42 24.5t48.5 8.5q33 0 57.5 -10
t40 -27t23.5 -39.5t8 -47.5z" />
    <glyph glyph-name="currency" unicode="&#xa4;" 
d="M372 255q0 51 -24 84t-81 33q-43 0 -71.5 -31.5t-28.5 -87.5q0 -26 5.5 -48t17.5 -38.5t32 -26t49 -9.5q20 0 38 8.5t32 24t22.5 38.5t8.5 53zM432 -17l-81 108q-39 -24 -90 -24q-41 0 -70 13l-71 -97l-63 46l73 90q-19 23 -29.5 55t-10.5 76q0 78 45 126l-78 97l62 45
l74 -101q36 18 83 18q20 0 41 -3.5t41 -14.5l75 101l61 -46l-79 -98q15 -20 24.5 -48.5t9.5 -69.5q0 -37 -11 -68t-30 -54l86 -104z" />
    <glyph glyph-name="Euro" unicode="&#x20ac;" 
d="M88 287q-1 28 -1 40q0 29 3 62h-69v62h80q12 51 34.5 93.5t57 73t81 47t106.5 16.5q26 0 52 -5t56 -16l-17 -75q-26 11 -50 17t-50 6q-75 0 -118.5 -43.5t-60.5 -113.5h196v-62h-206q-3 -26 -3 -54q0 -13 0.5 -25t1.5 -23h207v-62h-199q17 -76 62 -117t124 -41
q28 0 49.5 4.5t43.5 13.5l17 -71q-30 -11 -63.5 -16.5t-65.5 -5.5q-61 0 -106.5 16.5t-77.5 47t-51 73.5t-27 96h-73v62h67z" />
    <glyph glyph-name="dollar" unicode="$" 
d="M401 178q0 42 -24.5 66t-73.5 44l-5 -218q48 8 75.5 35.5t27.5 72.5zM250 595q-47 -5 -74 -32t-27 -69q0 -41 25 -64t72 -42l4 207v0zM483 189q0 -39 -14 -71t-38.5 -56t-59 -40t-75.5 -22l-3 -127h-61l3 124q-41 0 -80.5 6.5t-75.5 20.5l14 77q30 -15 67.5 -24t77.5 -10
l5 239q-40 13 -72 28.5t-54.5 36.5t-34.5 49t-12 66q0 72 49 119.5t133 55.5l2 102h61l-2 -99q29 -1 61 -6.5t59 -13.5l-13 -69q-26 11 -54 16t-56 7l-5 -228q42 -14 75 -30.5t56 -38t35 -49t12 -63.5z" />
    <glyph glyph-name="cent" unicode="&#xa2;" 
d="M290 533q-27 -4 -51 -18t-42.5 -37.5t-29.5 -55.5t-11 -72q0 -88 36 -133t98 -53v369zM472 122q-29 -12 -60.5 -20t-60.5 -10v-95h-61v95q-48 2 -87.5 18t-68.5 46.5t-45 76.5t-16 108q0 55 16.5 100.5t45.5 79.5t68.5 54.5t86.5 25.5v76h61v-74q28 -2 58.5 -7.5
t57.5 -16.5l-13 -68q-25 11 -51.5 17t-51.5 7v-373q26 2 54 8.5t54 19.5l13 -68v0z" />
    <glyph glyph-name="sterling" unicode="&#xa3;" 
d="M82 0v60q30 22 52.5 44t37.5 45t22.5 49t7.5 57q0 10 -1.5 31t-4.5 50h-115v62h108q-4 31 -8.5 66t-4.5 60q0 94 51 138.5t137 44.5q20 0 46 -2t46 -7l-9 -66q-19 5 -41 7t-42 2q-49 0 -78 -29t-29 -81q0 -23 4.5 -58t7.5 -75h168v-62h-161q2 -22 3 -40.5t1 -33.5
q0 -32 -5.5 -58.5t-17 -49t-29.5 -43.5t-44 -43q15 2 34 3t40 1h219v-72h-395z" />
    <glyph glyph-name="florin" unicode="&#x192;" 
d="M483 647q-16 5 -35 7.5t-37 2.5q-44 0 -69.5 -30.5t-30.5 -96.5l-10 -119h172v-62h-176l-23 -275q-5 -63 -19 -105t-36.5 -67.5t-54.5 -36t-74 -10.5q-16 0 -35.5 2t-36.5 7l11 68q14 -5 32.5 -7t32.5 -2q42 0 67 30.5t31 102.5l25 293h-151v62h155l10 110
q10 110 54.5 156t128.5 46q18 0 39.5 -2t40.5 -6z" />
    <glyph glyph-name="yen" unicode="&#xa5;" 
d="M336 300h138v-58h-159v-83h159v-57h-159v-102h-81v102h-159v57h159v83h-159v58h138l-183 375h90l115 -244q12 -25 21.5 -50.5t20.5 -51.5h1q10 26 22 54.5t23 51.5l112 240h88z" />
    <glyph glyph-name="numbersign" unicode="#" horiz-adv-x="576" 
d="M233 446l-19 -195h130l19 195h-130zM429 446l-19 -195h104v-57h-110l-20 -194h-66l20 194h-130l-20 -194h-66l20 194h-106v57h112l19 195h-106v57h112l17 172h66l-17 -172h130l17 172h66l-17 -172h105v-57h-111z" />
    <glyph glyph-name="zero" unicode="0" 
d="M429 296q0 127 -42.5 185.5t-112.5 58.5q-30 0 -58 -14t-49.5 -43t-34.5 -73.5t-13 -105.5q0 -127 42.5 -185t113.5 -58q30 0 58 13.5t49 42.5t34 73t13 106zM515 304q0 -76 -20 -134.5t-53.5 -98.5t-78.5 -60.5t-96 -20.5q-47 0 -89.5 15.5t-74.5 52t-51 95.5t-19 146
q0 75 20 133t53.5 97.5t78.5 60t96 20.5q46 0 88 -15.5t74.5 -51t52 -94t19.5 -145.5z" />
    <glyph glyph-name="one" unicode="1" 
d="M89 0v74h175v433l-167 -113l-31 68l212 138h71v-526h149v-74h-409z" />
    <glyph glyph-name="two" unicode="2" 
d="M69 0v66l142 136q43 41 71.5 71.5t45 55t23.5 47t7 47.5q0 52 -30 83t-90 31q-41 0 -75 -14.5t-58 -34.5l-32 66q37 26 81 41t100 15q47 0 83 -13.5t60.5 -37t37 -55.5t12.5 -69q0 -32 -8.5 -61t-26 -58.5t-45.5 -61t-67 -68.5l-117 -110l-3 -2q40 2 115 3t183 1v-78
h-409z" />
    <glyph glyph-name="three" unicode="3" 
d="M468 129q0 -48 -20.5 -88.5t-56.5 -70t-86.5 -46.5t-110.5 -17q-29 0 -63.5 4.5t-59.5 12.5l14 74q26 -10 58 -15t62 -5q39 0 71 10.5t54.5 29.5t35 44t12.5 54q0 60 -42 95t-119 35q-24 0 -46 -1t-42 -2v67h24q104 0 156 33t52 96q0 49 -34.5 75.5t-88.5 26.5
q-38 0 -71 -9.5t-59 -24.5l-24 66q34 16 75 26.5t90 10.5q48 0 85 -12.5t62 -34t38 -50.5t13 -62q0 -60 -31.5 -100.5t-83.5 -57.5l-1 -1q29 -4 54 -18.5t43.5 -36t29 -49.5t10.5 -59z" />
    <glyph glyph-name="four" unicode="4" 
d="M332 517h-1l-221 -358q22 1 53 1.5t63 1t60 0.5h46v355zM413 87v-170h-82v170h-298l-6 66l273 447h113v-438h116v-75h-116z" />
    <glyph glyph-name="five" unicode="5" 
d="M471 137q0 -53 -22.5 -95.5t-62.5 -72.5t-93.5 -46t-115.5 -16q-32 0 -53 1.5t-39 5.5l8 77q16 -4 37.5 -7t53.5 -3q96 0 147 39t51 105q0 77 -55.5 112.5t-160.5 35.5q-16 0 -30.5 -0.5t-29.5 -1.5l22 329h311v-80h-238l-12 -176q135 0 208.5 -53.5t73.5 -153.5z" />
    <glyph glyph-name="six" unicode="6" 
d="M408 215q0 62 -32.5 101.5t-96.5 39.5q-30 0 -54 -13t-40.5 -32.5t-25.5 -44t-9 -46.5q0 -32 8 -61t24.5 -51t41 -35t57.5 -13q60 0 93.5 43t33.5 112zM491 229q0 -53 -16 -97t-44.5 -75.5t-68.5 -49t-88 -17.5q-102 0 -158.5 75t-56.5 210q0 109 24.5 187t68.5 127.5
t104.5 72.5t132.5 23q9 0 23.5 -0.5t23.5 -1.5l-7 -74q-26 3 -49 3q-53 0 -92 -15t-67 -43.5t-45.5 -70.5t-26.5 -95q-2 -14 -4 -27.5t-3 -25.5q23 43 63 66.5t89 23.5q47 0 83.5 -15t62 -41.5t38.5 -62.5t13 -77z" />
    <glyph glyph-name="seven" unicode="7" 
d="M492 529q-73 -144 -139 -300.5t-121 -311.5h-94q60 161 127 314t136 290q-11 0 -41.5 -0.5t-75.5 -1t-101 -0.5h-119v81h428v-71v0z" />
    <glyph glyph-name="eight" unicode="8" 
d="M403 157q0 46 -31.5 81t-103.5 71q-62 -38 -91.5 -71.5t-29.5 -75.5q0 -47 34 -75.5t95 -28.5q26 0 49 6.5t40.5 19.5t27.5 31t10 42zM384 526q0 41 -27.5 66t-83.5 25q-55 0 -84.5 -27t-29.5 -69q0 -37 27 -67t89 -63q62 40 85.5 70.5t23.5 64.5zM490 169
q0 -44 -17.5 -77.5t-48 -56t-71.5 -34.5t-88 -12q-99 0 -152.5 46.5t-53.5 118.5q0 46 30.5 93.5t110.5 96.5q-66 38 -94.5 77.5t-28.5 91.5q0 37 14.5 69t41 54.5t63.5 35.5t83 13q89 0 139.5 -42t50.5 -111q0 -48 -27 -90t-98 -88q80 -42 113 -87.5t33 -97.5z" />
    <glyph glyph-name="nine" unicode="9" 
d="M391 381q0 34 -8.5 63.5t-25 51t-40.5 33.5t-54 12q-29 0 -52.5 -11.5t-40 -32t-25.5 -48t-9 -60.5q0 -64 32.5 -104t91.5 -40q31 0 55 12t41 31t26 43.5t9 49.5zM485 329q0 -112 -26 -192t-71 -131t-105.5 -75t-130.5 -24q-20 0 -43 1.5t-42 5.5l11 77q42 -11 86 -11
q91 0 149.5 58.5t74.5 164.5q2 16 4 27t4 25h-1q-24 -38 -63 -60t-90 -22q-45 0 -80.5 15t-59.5 42t-37 64t-13 82q0 52 16 95t45 74t69 48t88 17t87.5 -17t68 -51.5t44 -87.5t15.5 -125z" />
    <glyph glyph-name="zero.lowTab" unicode="&#xf010;" 
d="M409 326q0 73 -8.5 123t-25 81t-42 44.5t-59.5 13.5q-29 0 -53.5 -13t-42.5 -43t-28 -78.5t-10 -119.5q0 -139 29.5 -205t104.5 -66q63 0 99 64.5t36 198.5zM500 332q0 -94 -20 -159t-52.5 -105.5t-74 -58.5t-85.5 -18q-53 0 -94 17.5t-69 57.5t-42 104.5t-14 158.5
q0 85 17.5 147.5t48 103t73 60t93.5 19.5q48 0 88 -15.5t69 -53t45.5 -100.5t16.5 -158z" />
    <glyph glyph-name="one.lowTab" unicode="&#xf011;" 
d="M76 0v76h176v489l-162 -64l-15 79l196 70h68v-574h155v-76h-418z" />
    <glyph glyph-name="two.lowTab" unicode="&#xf012;" 
d="M59 0v68l150 148q51 49 82 83.5t48 61.5t22.5 50t5.5 47q0 54 -34 90t-98 36q-45 0 -84 -16t-64 -36l-22 73q37 23 83.5 38.5t100.5 15.5q52 0 91.5 -15.5t66 -41t39.5 -59.5t13 -71q0 -32 -6.5 -61.5t-24.5 -61t-49 -67.5t-80 -82l-127 -120v-1q32 1 85 1.5t124 0.5h102
v-81h-424z" />
    <glyph glyph-name="three.lowTab" unicode="&#xf013;" 
d="M472 198q0 -48 -19 -86t-54 -65t-85 -41.5t-112 -14.5q-34 0 -66 4t-57 12l9 76q27 -9 58 -14.5t65 -5.5q84 0 127 34t43 89q0 56 -42.5 88t-123.5 32q-27 0 -49 -1.5t-48 -3.5v68h22q108 0 167.5 30t59.5 93q0 45 -34 71t-91 26q-42 0 -77 -10t-67 -27l-8 74
q35 14 76 23.5t90 9.5q50 0 87.5 -12t62.5 -32.5t37.5 -48.5t12.5 -61q0 -59 -32.5 -97.5t-92.5 -55.5l-1 -2q30 -2 56 -15t45 -33.5t30 -47t11 -56.5z" />
    <glyph glyph-name="four.lowTab" unicode="&#xf014;" 
d="M335 565h-1l-223 -339q23 1 55 1.5t64 0.5h105v337zM418 151v-151h-84v151h-303l-7 68l279 431h115v-422h110v-77h-110z" />
    <glyph glyph-name="five.lowTab" unicode="&#xf015;" 
d="M473 212q0 -50 -19 -90.5t-54.5 -69.5t-85 -45t-109.5 -16q-33 0 -61.5 3t-57.5 10v79q28 -9 59.5 -14t67.5 -5q82 0 125.5 37.5t43.5 100.5q0 62 -47 93.5t-125 31.5q-32 0 -61 -2.5t-48 -5.5v331h348v-81h-270v-176q14 1 30 1.5t27 0.5q58 0 102.5 -14t74.5 -39t45 -58
t15 -72z" />
    <glyph glyph-name="six.lowTab" unicode="&#xf016;" 
d="M417 204q0 60 -33.5 97t-99.5 37q-32 0 -57.5 -12t-43 -30.5t-26.5 -41t-9 -43.5q0 -31 9 -58.5t26.5 -48t43.5 -32.5t60 -12q63 0 96.5 40t33.5 104zM503 219q0 -51 -16 -93t-45.5 -72t-70.5 -46.5t-92 -16.5q-106 0 -165.5 71t-59.5 201q0 105 24.5 180t68.5 123
t105 70.5t133 22.5q15 0 30.5 -0.5t25.5 -2.5v-74q-14 2 -29 3t-35 1q-102 0 -157.5 -56.5t-74.5 -158.5q-3 -16 -8 -51h1q25 43 67.5 65.5t96.5 22.5q49 0 86.5 -15t63 -40.5t38.5 -60t13 -73.5z" />
    <glyph glyph-name="seven.lowTab" unicode="&#xf017;" 
d="M494 577q-38 -71 -74.5 -146t-69 -149.5t-60.5 -146t-50 -135.5h-98q25 68 54.5 140.5t62 145t67.5 144.5t71 139q-9 0 -36 -0.5t-63 -1t-77 -0.5h-76h-89v83h438v-73v0z" />
    <glyph glyph-name="eight.lowTab" unicode="&#xf018;" 
d="M405 157q0 27 -11.5 47.5t-30 37t-43.5 29.5t-52 25q-24 -14 -46 -28t-39.5 -30.5t-27.5 -35.5t-10 -43q0 -44 34 -71.5t99 -27.5q27 0 50 6.5t40 19t27 30.5t10 41zM390 495q0 47 -32 71.5t-85 24.5q-54 0 -84 -27.5t-30 -66.5q0 -42 29 -68t91 -56q22 12 42.5 25
t35.5 28t24 32t9 37zM493 165q0 -40 -17 -72.5t-47 -55t-71 -34.5t-89 -12t-87.5 11.5t-67 32.5t-43 50.5t-15.5 66.5q0 31 12 57t31.5 47t45 38.5t53.5 33.5q-60 30 -93 67.5t-33 94.5q0 36 15 67t42.5 53.5t65.5 35.5t85 13q93 0 145 -44t52 -113q0 -28 -10.5 -51.5
t-27.5 -43t-40.5 -36t-48.5 -31.5q27 -14 53 -30t46 -36.5t32 -47t12 -61.5z" />
    <glyph glyph-name="nine.lowTab" unicode="&#xf019;" 
d="M398 439q0 33 -9 60.5t-26 47.5t-42.5 31.5t-58.5 11.5q-30 0 -54.5 -11t-41 -30t-25.5 -45t-9 -55q0 -63 34 -100.5t95 -37.5q33 0 58.5 10.5t43 28t26.5 40.5t9 49zM492 387q0 -108 -25 -183t-69.5 -122.5t-105 -69t-132.5 -21.5q-19 0 -39 1.5t-40 5.5v77
q21 -5 44 -7.5t46 -2.5q98 0 152.5 50t71.5 151q2 15 4.5 25.5t4.5 23.5h-1q-24 -35 -64.5 -55.5t-93.5 -20.5q-48 0 -85 14.5t-62 41t-38 62.5t-13 78q0 51 16.5 92.5t46 70.5t70 45t89.5 16q51 0 92 -16t70 -49t45 -84.5t16 -122.5z" />
    <glyph glyph-name="onesuperior" unicode="&#xb9;" horiz-adv-x="263" 
d="M108 270v329l-89 -36l-13 70l116 42h68v-405h-82z" />
    <glyph glyph-name="twosuperior" unicode="&#xb2;" horiz-adv-x="335" 
d="M30 270v61l97 93q42 39 57 67t15 54q0 32 -17 49.5t-52 17.5q-23 0 -44.5 -6t-38.5 -17l-11 67q23 11 52 18t61 7q69 0 101.5 -33.5t32.5 -84.5q0 -39 -18.5 -77t-63.5 -80l-69 -66q34 2 75 2h93v-72h-270z" />
    <glyph glyph-name="threesuperior" unicode="&#xb3;" horiz-adv-x="311" 
d="M275 394q0 -60 -44 -96.5t-119 -36.5q-19 0 -39 2.5t-39 6.5l9 63q16 -5 32.5 -8t36.5 -3q35 0 57.5 18.5t22.5 50.5q0 15 -7.5 27.5t-24 20.5t-43 10.5t-64.5 -2.5v56q66 0 100 16t34 53q0 23 -15.5 36.5t-44.5 13.5q-20 0 -40 -5t-38 -13l-9 59q49 18 105 18
q59 0 91 -26t32 -74q0 -35 -18.5 -59t-52.5 -37q36 -5 57 -32t21 -59z" />
    <glyph glyph-name="fraction" unicode="&#x2044;" horiz-adv-x="416" 
d="M57 -121l-68 33l433 843l67 -33z" />
    <glyph glyph-name="fraction" unicode="&#x2215;" horiz-adv-x="416" 
d="M57 -121l-68 33l433 843l67 -33z" />
    <glyph glyph-name="onehalf" unicode="&#xbd;" horiz-adv-x="709" 
d="M425 0v49l76 67q32 28 43.5 45.5t11.5 37.5q0 19 -13.5 32t-37.5 13q-14 0 -29.5 -5.5t-26.5 -13.5l-20 53q20 11 44 17t49 6q29 0 50 -7.5t34.5 -20t20 -28.5t6.5 -33q0 -29 -14 -54.5t-50 -55.5l-49 -43h123v-59h-218zM110 -20l-55 39l496 649l56 -39zM132 357v232
l-70 -33l-17 54l94 40h65v-293h-72z" />
    <glyph glyph-name="onequarter" unicode="&#xbc;" horiz-adv-x="705" 
d="M132 357v232l-70 -33l-17 54l94 40h65v-293h-72zM111 -20l-56 39l497 649l55 -39zM595 56v-56h-66v56h-145l-4 48l115 189h100v-183h52v-54h-52zM529 246l-84 -137h84v137z" />
    <glyph glyph-name="threequarters" unicode="&#xbe;" horiz-adv-x="706" 
d="M252 444q0 -48 -37.5 -72t-101.5 -24q-16 0 -34.5 2.5t-29.5 4.5l9 52q11 -3 25.5 -5.5t28.5 -2.5q33 0 47.5 11.5t14.5 30.5q0 28 -22.5 37t-79.5 3v46h22q42 0 58 13t16 31q0 15 -11.5 26t-37.5 11q-14 0 -27.5 -3.5t-24.5 -8.5l-15 46q17 8 39.5 12t45.5 4
q56 0 80 -23.5t24 -53.5q0 -26 -11.5 -42.5t-34.5 -27.5q28 -4 42.5 -23t14.5 -44zM112 -20l-56 39l497 649l55 -39zM596 56v-56h-66v56h-145l-4 48l115 189h100v-183h52v-54h-52zM530 246l-84 -137h84v137z" />
    <glyph glyph-name="percent" unicode="%" horiz-adv-x="797" 
d="M183 -23l-60 44l475 677l60 -44zM283 526q0 53 -20 77t-62 24q-35 0 -58 -27.5t-23 -74.5q0 -104 79 -104q38 0 61 28t23 77zM359 532q0 -41 -13.5 -73.5t-36.5 -54.5t-52.5 -33.5t-61.5 -11.5t-60 9t-48 28.5t-31.5 49.5t-11.5 72t13.5 73.5t36 53.5t51.5 33t60 11
q32 0 60 -8.5t49 -27t33 -48.5t12 -73zM665 153q0 53 -20 77t-62 24q-34 0 -57.5 -27.5t-23.5 -74.5q0 -104 79 -104q38 0 61 28t23 77zM741 159q0 -41 -13.5 -73.5t-36 -54.5t-52.5 -33.5t-62 -11.5t-59.5 9t-48 28.5t-32 49.5t-11.5 72t13.5 73.5t36 53.5t51.5 33t60 11
q32 0 60 -8.5t49 -27t33 -48.5t12 -73z" />
    <glyph glyph-name="perthousand" unicode="&#x2030;" horiz-adv-x="1043" 
d="M582 151q0 53 -15.5 76.5t-56.5 23.5q-32 0 -51 -27.5t-19 -73.5q0 -51 15 -76.5t53 -25.5q37 0 55.5 27.5t18.5 75.5zM259 527q0 52 -15.5 76t-55.5 24q-33 0 -52 -27.5t-19 -73.5q0 -51 15.5 -76.5t53.5 -25.5q36 0 54.5 27.5t18.5 75.5zM914 151q0 53 -16 76.5
t-56 23.5q-33 0 -52 -27.5t-19 -73.5q0 -51 15.5 -76.5t53.5 -25.5q37 0 55.5 27.5t18.5 75.5zM656 158q0 -40 -12 -72t-32.5 -54t-48.5 -34t-59 -12q-63 0 -100 37t-37 120q0 40 12 71.5t32 53.5t46.5 33.5t56.5 11.5q31 0 57 -8.5t45 -27t29.5 -48t10.5 -71.5zM145 -23
l-60 44l468 677l60 -44zM333 533q0 -40 -12 -71.5t-32.5 -53.5t-48.5 -34t-59 -12q-62 0 -99.5 37t-37.5 120q0 40 12 71.5t32.5 53.5t47 33.5t56.5 11.5q31 0 56.5 -8.5t44.5 -27t29.5 -48t10.5 -72.5zM987 158q0 -40 -12 -72t-32 -54t-48 -34t-59 -12q-62 0 -100 37
t-38 120q0 40 12 71.5t32.5 53.5t47.5 33.5t57 11.5t56 -8.5t44.5 -27t29 -48t10.5 -71.5z" />
    <glyph glyph-name="plus" unicode="+" 
d="M313 224v-216h-77v216h-196v68h196v215h77v-215h197v-68h-197z" />
    <glyph glyph-name="minus" unicode="&#x2212;" 
d="M86 225v69h369v-69h-369z" />
    <glyph glyph-name="multiply" unicode="&#xd7;" 
d="M435 29l-163 172l-162 -171l-44 45l162 173l-162 173l49 49l162 -171l162 171l44 -46l-162 -171l164 -174z" />
    <glyph glyph-name="divide" unicode="&#xf7;" 
d="M332 56q0 -24 -17 -41t-40 -17q-24 0 -40.5 17t-16.5 41q0 23 16.5 39.5t40.5 16.5q23 0 40 -16.5t17 -39.5zM49 224v68h452v-68h-452zM332 459q0 -24 -17 -40.5t-40 -16.5q-24 0 -40.5 16.5t-16.5 40.5q0 23 16.5 40t40.5 17q23 0 40 -17t17 -40z" />
    <glyph glyph-name="equal" unicode="=" 
d="M71 138v66h408v-66h-408zM71 304v66h408v-66h-408z" />
    <glyph glyph-name="notequal" unicode="&#x2260;" 
d="M267 137l-53 -143h-72l54 143h-144v67h168l36 100h-204v66h229l54 147h72l-55 -147h146v-66h-170l-37 -100h207v-67h-231z" />
    <glyph glyph-name="approxequal" unicode="&#x2248;" 
d="M487 156q-22 -20 -53 -36t-68 -16q-33 0 -56 9.5t-42.5 20.5t-39.5 20.5t-48 9.5q-29 0 -50.5 -14t-36.5 -28l-30 55q20 20 50 38t68 18q32 0 55 -9.5t43.5 -21.5t41.5 -21.5t49 -9.5q23 0 44 10t44 30l29 -55v0zM486 329q-21 -22 -51 -39.5t-68 -17.5q-33 0 -55.5 9.5
t-42.5 20.5t-40.5 20.5t-48.5 9.5t-50 -13.5t-37 -27.5l-30 55q21 20 51.5 37.5t68.5 17.5q32 0 55.5 -9.5t44 -21.5t40.5 -21.5t46 -9.5q24 0 45 12t42 32l30 -54v0z" />
    <glyph glyph-name="less" unicode="&#x3c;" 
d="M400 -29l-341 279l341 287l52 -54l-282 -232l282 -224z" />
    <glyph glyph-name="greater" unicode="&#x3e;" 
d="M130 -29l-52 52l282 233l-282 224l52 57l342 -280z" />
    <glyph glyph-name="plusminus" unicode="&#xb1;" 
d="M56 -58v69h440v-69h-440zM314 275v-199h-76v199h-188v67h188v198h76v-198h188v-67h-188z" />
    <glyph glyph-name="lessequal" unicode="&#x2264;" 
d="M83 -58v69h384v-69h-384zM409 65l-334 246l333 247l47 -57l-266 -189l266 -187z" />
    <glyph glyph-name="greaterequal" unicode="&#x2265;" 
d="M83 -58v69h384v-69h-384zM142 65l-47 56l266 190l-266 187l46 60l334 -246z" />
    <glyph glyph-name="logicalnot" unicode="&#xac;" 
d="M400 71v159h-339v66h409v-225h-70z" />
    <glyph glyph-name="estimated" unicode="&#x212e;" horiz-adv-x="807" 
d="M204 158q0 -26 7.5 -41.5t26.5 -29.5q28 -21 69 -35.5t91 -14.5q78 0 145 37.5t113 112.5l43 -26q-51 -85 -131 -127.5t-172 -42.5q-73 0 -135.5 26.5t-108.5 73t-72 109t-26 135.5t27 135.5t73.5 109t109.5 73t136 26.5t135.5 -26.5t108.5 -73t72 -109t26 -135.5h-538
v-177zM592 512q0 26 -7.5 41.5t-26.5 29.5q-28 21 -69 35.5t-91 14.5t-91 -14.5t-69 -35.5q-19 -14 -26.5 -29.5t-7.5 -41.5v-132h388v132z" />
    <glyph glyph-name="uni2113" unicode="&#x2113;" horiz-adv-x="496" 
d="M458 178q-17 -97 -61.5 -142.5t-118.5 -45.5t-113 38.5t-39 126.5v78l-78 -84l-34 64l112 117v219q0 91 43.5 139t118.5 48q66 0 99.5 -33.5t33.5 -93.5q0 -33 -12.5 -65.5t-38.5 -68.5t-65.5 -78t-93.5 -94v-127q0 -66 19.5 -89.5t56.5 -23.5q36 0 58.5 29t36.5 101z
M334 593q0 74 -55 74q-30 0 -49 -24.5t-19 -86.5v-156q60 64 91.5 109.5t31.5 83.5z" />
    <glyph glyph-name="infinity" unicode="&#x221e;" horiz-adv-x="974" 
d="M420 270q-51 39 -96 66t-87 27q-45 0 -69 -27t-24 -63q0 -40 24.5 -66t72.5 -26q40 0 84.5 25.5t94.5 63.5zM830 272q0 39 -24.5 65t-72.5 26q-39 0 -84.5 -26t-95.5 -63q52 -39 97 -66t87 -27q45 0 69 27t24 64zM915 276q0 -35 -12.5 -65.5t-35.5 -54t-57.5 -37
t-77.5 -13.5q-61 0 -122 33.5t-126 81.5q-29 -21 -59 -42t-61.5 -37t-63.5 -26t-65 -10q-45 0 -78 13t-54.5 35.5t-32.5 51.5t-11 62q0 35 12.5 66t36 54t57 36t74.5 13q32 0 63.5 -9t62.5 -25t62 -36.5t63 -44.5q28 21 58.5 42t62 37t63.5 26t64 10q43 0 76.5 -12.5
t55.5 -34.5t33.5 -51.5t11.5 -62.5z" />
    <glyph glyph-name="partialdiff" unicode="&#x2202;" horiz-adv-x="638" 
d="M444 238q0 56 -34.5 92.5t-100.5 36.5q-33 0 -60 -12.5t-46.5 -34t-30.5 -50.5t-11 -63q0 -72 36 -107t93 -35q33 0 61 13.5t49 36.5t32.5 55t11.5 68zM563 410q0 -43 -5 -87t-16 -86t-28 -80t-42 -70q-32 -42 -82.5 -68.5t-110.5 -26.5q-100 0 -151.5 56t-51.5 151
q0 51 17.5 95t49 76t75.5 50t97 18q60 0 100.5 -27t58.5 -72q1 49 0 87q-3 61 -20.5 106t-47.5 75t-70 45t-86 15l9 70q69 -2 125 -24.5t96 -64.5t61.5 -102t21.5 -136z" />
    <glyph glyph-name="integral" unicode="&#x222b;" horiz-adv-x="338" 
d="M318 659q-11 3 -24 5.5t-26 2.5q-20 0 -33.5 -6.5t-22.5 -25.5t-13 -52t-4 -86q0 -60 2 -115t4 -113.5t4 -124t2 -145.5q0 -71 -9 -120.5t-28 -80.5t-47 -44.5t-67 -13.5q-13 0 -27 1.5t-25 4.5v75q10 -4 23.5 -6t25.5 -2q19 0 33 6.5t23 24.5t13 50t4 84q0 56 -1.5 111
t-4 115t-4 127t-1.5 147q0 72 9.5 121.5t29 80.5t48 44.5t66.5 13.5q26 0 50 -6v-73v0z" />
    <glyph glyph-name="radical" unicode="&#x221a;" 
d="M328 0h-103l-133 435h-84v62h149l87 -299q2 -7 7 -23.5t10 -34.5t9.5 -35t6.5 -24l1 1q2 7 6 22.5t8 32t7.5 31.5t5.5 21l143 569h88z" />
    <glyph glyph-name="product" unicode="&#x220f;" horiz-adv-x="784" 
d="M632 657v-909h-82v909h-316v-909h-81v909h-107v73h692v-73h-106z" />
    <glyph glyph-name="summation" unicode="&#x2211;" horiz-adv-x="609" 
d="M39 -252v65l309 435l-293 416v66h482v-73h-377l287 -406l-307 -428h412v-75h-513z" />
    <glyph glyph-name="lozenge" unicode="&#x25ca;" horiz-adv-x="618" 
d="M304 591l-175 -248l186 -258l176 245zM339 -9h-54l-249 350l245 343h51l250 -349z" />
    <glyph glyph-name="FoFa" unicode="&#xf000;" horiz-adv-x="1000" 
d="M449 163q-2 -7 2 -10t5 -8q7 -14 4 -29t-13 -26q-2 -4 -5.5 -4.5t-6.5 -2.5q-13 2 -14.5 13t-3.5 20q2 8 2.5 16.5t5.5 15.5q7 4 10 11t11 7zM321 110q0 -8 -4.5 -13t-9.5 -10q-4 -1 -8 -4t-9 0q-7 2 -5 7.5t3 10.5q0 6 9 10q6 0 10 4q3 -1 7.5 -0.5t6.5 -4.5zM434 580
q6 6 13.5 11t3.5 16q-2 11 -7.5 21.5t-18.5 12.5q-2 -5 -6.5 -3.5t-7.5 0.5q-7 3 -14 1t-12 -7q-11 -15 -3.5 -29t15.5 -27q2 -4 5 -3t7 0q7 -2 13 1.5t12 5.5zM473 627q3 -19 -7 -31q-11 -7 -20 -15.5t-22 -10.5q-6 2 -7 -3.5t-6 -1.5t-12 2t-13 -1q-6 0 -11 0.5t-10 2.5
q-8 7 -15.5 15.5t-2.5 20.5q3 9 8.5 17t15.5 13q11 5 22 10.5t25 2.5q16 -1 31.5 -4t23.5 -17zM762 676q5 -8 3 -17.5t2 -18.5q4 -6 10.5 -4t11.5 0q23 2 49 1.5t64 4.5q8 -3 2 -7q-11 2 -21 0.5t-21 -2.5q-34 -2 -53.5 -3t-36.5 -4q-8 -7 -7 -16t-3 -17q0 -5 1.5 -8t2.5 -7
q4 -5 14 -7q7 1 13.5 4t9.5 9q0 7 -7 12q-5 4 -10.5 3t-9.5 4q3 5 9.5 4t12.5 -1q10 -3 15 -16q-1 -15 -18 -27q-5 -2 -10.5 -2.5t-10.5 -2.5q-12 3 -24.5 8t-20.5 16q-4 12 -1 22.5t4 21.5q-2 5 -6 4t-9 0l-33 -1q0 2 -1 2t-1 2q3 2 7 2t7 1q9 -2 19 -1t19 1q4 3 4.5 7.5
t0.5 9.5q3 7 3.5 16t5.5 14q5 3 8 -1t6 -6zM641 634q2 -11 1.5 -21.5t0.5 -21.5q2 -3 1.5 -6.5t2.5 -5.5q9 -2 13 0q4 0 8 -1t9 -1q3 -3 -3 -7q-12 0 -25.5 -0.5t-25.5 -4.5q-4 2 -7.5 2.5t-5.5 5.5q2 14 3.5 28t-2.5 28q-2 3 -6.5 0.5t-7.5 -4.5q-14 -8 -26.5 -19.5
t-14.5 -28.5q-4 -4 -9 -5.5t-10 0.5q-5 7 -3 15t0 16l-1 31q-3 3 -8 1.5t-10 0.5q-2 2 -6.5 1t-4.5 4q13 -1 25.5 1t26.5 0q3 -3 3 -7v-8t0.5 -7.5t5.5 -4.5q14 6 26 14.5t26 13.5q6 -4 14 -1.5t10 -7.5zM396 780q5 -2 10 -2t10 -2q17 -4 34 -12t28 -23q2 -2 0 -9
q-12 -13 -29 -8q-5 6 -9 11.5t-5 12.5q-13 20 -35 25t-43 11l-31 2q-2 -2 -6 -1t-7 -1q-33 -10 -55 -21q-6 -8 -15.5 -13.5t-11.5 -16.5q-6 -15 -8 -34t-3 -36q5 -4 11 -2.5t11 0.5q21 2 42 2h44q4 -2 1 -7q-8 -6 -15.5 -0.5t-15.5 2.5q-10 1 -20.5 -0.5t-20.5 -0.5
q-9 -2 -19 -2q-9 0 -17 -5l-3 -4q-2 -19 -1.5 -31t2.5 -32q2 -7 0.5 -14t3.5 -14q13 -1 20.5 -0.5t14 1t14 1.5t20.5 1q3 2 6.5 1t6.5 -2q2 -5 -3 -6q-12 2 -21 1.5t-18 -1.5t-20 -2t-26 0q-11 -1 -23 -2t-23 0q-16 -1 -33 -1t-31 4l-2 3q3 3 9 5q8 -4 18 -4.5t21 -2.5
q7 1 14 0.5t12 3.5q-1 26 4 46t7 47q-1 2 -3 4q-15 1 -28.5 0t-27.5 5q-2 5 3 5q14 -4 28 -4t28 1l2 3q2 17 5.5 34.5t9.5 31.5v3q23 26 52.5 42t66.5 20q18 2 36 -2t34 -11zM759 52q6 0 6 6q-4 8 -8 16.5t-10 15.5q-6 11 -13 20.5t-9 22.5q-2 5 -5 8.5t-1 8.5q7 8 16.5 13
t16.5 13l-9 17q-9 -1 -16 -4.5t-15 -5.5q-4 -2 -9 -6t-10 1q1 20 1.5 39.5t-0.5 38.5l-2 3q-8 0 -14 2.5t-13 4.5q-2 -11 -3.5 -23.5t0.5 -24.5q-3 -8 -0.5 -19.5t-1.5 -19.5q1 -31 -1.5 -52t0.5 -51l-1 -7h24q3 1 6.5 -1t5.5 1v13q0 7 -1 15q0 4 -1 8t-1.5 8t1 7t6.5 5
q5 -2 5.5 -6.5t3.5 -8.5q-1 -7 3.5 -12t6.5 -11q10 -6 15 -16t14 -17q3 1 5.5 -1.5t7.5 -0.5zM634 70q2 3 2 6v7q0 20 -1 39t-1 37q0 7 1 13.5t-1 12.5q-7 5 -13.5 2t-14.5 -2q-7 -11 -5 -24t0 -26q-2 -5 -2 -12t-1 -14q2 -10 0.5 -22t5.5 -22q15 0 30 5zM583 159q1 8 3 16
t0 16q-8 -1 -16.5 -2.5t-13.5 -10.5q-4 -4 -5 -11.5t-10 -5.5q-2 8 -2 14v15q-4 2 -7.5 0t-7.5 0q-7 -4 -11 -13q0 -29 0.5 -55.5t3.5 -55.5q5 -8 13 -5.5t13 0.5q-3 11 -0.5 20.5t-1.5 20.5q2 11 5 22.5t11 21.5q6 5 13 6.5t13 6.5zM484 98q9 17 6.5 35t-6.5 38q1 3 -2.5 6
t-8 5l-9 4t-5.5 4q-2 2 -5 2q-2 0 -3 -3q-11 1 -19 -4q-5 -3 -7.5 -8t-6.5 -7q-5 -3 -9 3q4 18 2 36.5t-5 37.5l-2 7h-8q-9 -3 -8 -11t-1 -14q-3 -17 -2 -34t-2 -34q2 -17 0 -33t0 -31q0 -9 -1.5 -17.5t-0.5 -18.5q7 -4 15.5 -1t15.5 6q10 4 14 -3t10 -11q8 0 13 1
q11 6 23.5 19.5t11.5 25.5zM612 262q-5 -6 -7 -15t3 -15q2 -5 8 -5.5t11 1.5q9 6 7 19q-4 11 -12 15q-2 2 -5 2.5t-5 -2.5zM359 102q-3 11 -3 22t0.5 22t-0.5 21.5t-7 19.5q-7 5 -15 8t-16 9q-8 -2 -16.5 -0.5t-16.5 -4.5q-7 -4 -7 -11t-1 -15q5 -2 11.5 -1.5t12.5 1
t11.5 -1t9.5 -7.5q-1 -4 1.5 -6t-0.5 -6q-1 -2 -1 -4t2 -4t1 -5t-4 -4q-7 -2 -13.5 -1.5t-14.5 -1.5q-11 -5 -17 -15.5t-8 -21.5q-3 -5 -0.5 -10.5t-1.5 -10.5q0 -7 5 -11t10 -6q5 5 8 2q8 -2 14.5 4.5t14.5 11.5q5 1 6 -1t1 -6q0 -3 -0.5 -7t2.5 -6q5 -2 8 0t8 2q4 2 8 2.5
t7 3.5zM226 205q10 3 19.5 4.5t19.5 3.5l6 4q-2 9 0.5 16.5t2.5 15.5q-12 2 -25.5 1.5t-26.5 -1.5q-8 -1 -15 -2.5t-12 -5.5q-1 -16 -3 -32.5t-4 -32.5q2 -26 1 -54.5t1 -55.5q4 0 7.5 1.5t6.5 -0.5q6 2 11.5 -0.5t11.5 0.5q1 16 1 31q0 16 1 32q2 5 6.5 7.5t9.5 4.5
q4 2 8 0t7 3l-1 28q-4 5 -9.5 4.5t-11.5 -0.5q-4 -4 -7 -4q-8 2 -7.5 9.5t-1.5 12.5q-2 4 4 10zM796 19q0 -3 1.5 -5.5t-4.5 -7.5q-22 2 -49 -2.5t-48 -1.5q-56 2 -109 -4t-108 0q-25 -4 -48.5 -1.5t-47.5 4.5q-29 2 -59.5 1.5t-61.5 -0.5q-21 0 -50 -1.5t-50 -6.5
q-4 -1 -9 -1q-4 0 -6 5q0 16 -1 32.5t4 32.5q2 20 1 40t2 40q-4 23 -0.5 44.5t-0.5 44.5q0 32 2.5 64.5t4.5 66.5q2 36 0.5 71.5t0.5 71.5q4 8 11.5 6.5t14.5 0.5q8 -5 18.5 -2.5t18.5 1.5q3 3 7.5 5.5t5.5 -4.5q2 -2 0.5 -6t2.5 -6q-2 -14 -1.5 -38t2 -52t3.5 -57.5
t3 -53.5q32 10 58.5 27.5t57.5 28.5q5 2 9.5 6t11.5 6q2 1 4 3t6 0q5 -2 4 -7t-1 -10q-10 -29 -5 -61q2 -5 6.5 -3t7.5 2q8 7 17 11.5t17 10.5q10 6 20 11.5t21 9.5q12 8 23.5 16t24.5 13l20 16q2 4 4.5 6.5t12.5 -5.5q0 -14 3 -28.5t3 -28.5q1 -3 3 -2.5t3 -1.5q4 -5 2 -10
l-4 -10l2 -2q17 4 31.5 13t29 19t29 19t31.5 13q5 5 11 6.5t11 6.5q5 1 9 4.5t8.5 6.5t9.5 4t11 -3q2 0 4 -1t3 -3q-1 -4 0.5 -6.5t3.5 -5.5q-2 -8 0 -14.5t-2 -12.5q1 -13 0 -25t5 -23q-2 -7 2.5 -12.5t-0.5 -10.5q1 -8 0 -14.5t4 -12.5q1 -5 1.5 -9.5t-2.5 -8.5
q2 -11 2.5 -23t4.5 -23q-2 -4 -1 -8t1 -8q0 -38 5.5 -73.5t6.5 -73.5z" />
    <glyph glyph-name="apple" unicode="&#xf8ff;" horiz-adv-x="1041" 
d="M150 360q-2 -22 0 -44l-128 -9q-2 32 0 62zM531 355q2 0 2 5t-2 5q3 -5 0 -10zM528 357q5 0 2.5 2t-0.5 2v1q-5 0 -2 -2t0 -2v-1v0zM525 359q-2 -2 -2 -1q0 2 2 1zM525 357h1v3q0 5 -4 1q2 0 3 -1q-2 0 -3 -2t3 0v-1zM522 355q-3 5 0 10q-2 0 -2 -5t2 -5zM518 358
q-2 -1 -2 1q0 3 2 2v1q-2 1 -2.5 -2.5t2.5 -2.5v1zM513 362v-3q0 -2 -0.5 -1.5t-0.5 1.5v3h-1v-3q0 -2 1 -2q2 0 2 2v3h-1zM510 358h-2v6h-1v-7h3v1zM634 -6l-242 -61l26 -62h207l14 32l-7 14l-74 -19l-12 33l104 26zM633 77l-241 -62l16 -39l241 60zM395 151v-54l16 -38
l235 59v33h-251zM564 335q-13 2 -22.5 2.5t-20.5 0.5q-10 0 -21 -0.5t-24 -2.5l15 -143h60l13 143v0zM455 192l-16 137q-13 -3 -21 -6.5t-15 -5.5t-11 4t-4.5 15t1 17t6.5 10q29 8 61.5 14t64.5 6q34 0 66.5 -6t61.5 -14q4 -1 5.5 -9t1 -17t-4.5 -15.5t-11 -4.5
q-8 4 -17 6.5t-22 5.5l-14 -137h59q26 23 46 60.5t20 85.5q0 40 -15 75t-41 61t-61 41t-74 15q-40 0 -75 -15t-61 -41t-41 -61t-15 -75q0 -42 17.5 -80.5t50.5 -65.5h58zM763 338q0 -52 -19.5 -95.5t-48.5 -72.5v-77l-16 -5l32 -74l-30 -8l30 -72l-31 -7l10 -25l-29 -68h-51
q-3 -18 -28.5 -31t-60.5 -13q-36 0 -61 13t-27 31h-52l-50 122l31 8l-31 74l34 9l-19 46v78q-29 30 -48 73t-19 94q0 50 19 94t51.5 77t76.5 52t95 19q50 0 94 -19t77 -52t52 -77t19 -94zM1019 369q3 -31 0 -61l-126 9q2 21 0 43l126 9v0zM846 706q24 -19 43 -43l-94 -81
q-7 8 -15 16t-16 14zM543 696q-23 2 -44 0l-8 124q31 2 60 0l-8 -124v0zM152 665q11 11 21 21.5t22 20.5l83 -96q-8 -6 -15.5 -14t-15.5 -15l-95 83v0z" />
    <glyph glyph-name="designer" unicode="&#xf046;" horiz-adv-x="1316" 
d="M828 575q-5 4 -7 -0.5t-5 -2.5q-23 -11 -30.5 -34t-6.5 -46q7 -2 12 4t12 4q3 7 8.5 14.5t10 15t6 16t-5.5 16.5q6 0 6 5v8zM461 230q-7 2 -13 -3t-10 -11q-11 -14 -19.5 -30t-1.5 -33q5 -2 7 1l4 6q11 11 19.5 23t15.5 27zM599 208q2 5 4 13.5t-6 10.5l-5 -29q5 1 5 2
t2 3zM372 -7q-3 11 -15 13t-21 -2q-11 -9 -21.5 -19t-18.5 -21q-5 -15 -12 -30t-13 -30t-9.5 -30.5t-1.5 -32.5q3 -1 3.5 0.5t2.5 3.5q13 18 28.5 35t30.5 35t27 37t20 41zM572 -93q-2 -11 -3.5 -23t2.5 -23q3 -3 8 -2.5t9.5 3.5t6.5 8.5t-1 13.5q1 4 2.5 11t1 13.5t-3 11.5
t-8.5 6zM706 -155q6 13 2 28t-12 26q-5 -6 -6 -13l-2 -14q2 -8 4.5 -16.5t13.5 -10.5zM345 440l-4 -4t-10 -4t-24 -4.5t-46 -4.5q-34 -3 -64.5 -8.5t-62.5 -16.5q-5 -11 -13.5 -8t-14.5 6q-1 4 1 7t5 5.5l6 5t4 6.5q6 12 10.5 24t8.5 24q-2 6 2 13t7 13q22 51 42 102.5
t32 105.5q-4 14 3 21q6 2 8 -2t5 -7q-7 -39 -20 -75t-28 -71.5t-29.5 -71.5t-24.5 -74l2 -2q38 6 73 13t75 8q12 -2 27 -2t27 5l3 -4v0zM501 470q-5 -12 -9 -24.5t-13 -23.5q-7 -3 -12.5 0.5t-8.5 9.5q-16 37 -10 75q-2 1 -1 8t1.5 16t0.5 18t-3 13q-6 -15 -6.5 -31
t-1 -31.5t-4 -30t-15.5 -27.5q-2 -2 -7 -3.5t-12 1.5t-13 11.5t-9 28.5q3 19 4 36.5t4 35.5q2 7 -2 14.5t4 13.5q7 4 13 -4q1 -15 -1 -31.5t-3 -32t-0.5 -29t6.5 -23.5q7 -5 10.5 -2t5 9t2.5 12.5t3 8.5q4 20 3 42t5 42q3 3 5 7.5t4 8t5.5 5t9.5 -2.5q7 -20 7.5 -38.5
t-0.5 -37.5t-0.5 -38t6.5 -38q1 -3 4.5 -4t6.5 3l2 5.5t4.5 11.5t6 11t8.5 5zM655 498q-7 -17 -22 -29.5t-35 -12.5t-37.5 7.5t-26.5 24.5q-8 11 -7.5 23.5t2.5 26.5q2 9 7.5 15t6.5 15q29 24 64 12q4 -3 8 -4.5t3 -7.5q-3 -4 -7 0t-9 4q-27 7 -50 -16q-8 -12 -12 -26.5
t2 -28.5q22 -30 54 -34q9 4 19 4q11 0 19 10q6 4 9.5 12.5t11.5 4.5zM838 676q-3 -5 -9.5 -10t-14.5 -4q-2 3 -4.5 7t-7.5 -1q-29 -23 -55.5 -48.5t-37.5 -59.5q-3 -20 -5 -42t1 -43t11.5 -39.5t25.5 -31.5q10 -8 22 -6.5t24 0.5q6 4 10.5 8.5t10.5 8.5q2 -9 -6.5 -13
t-14.5 -10q-15 -6 -32.5 -2.5t-29.5 14.5q-23 21 -27 46q-5 2 -5 5t1 6t1.5 6t-3.5 5q2 3 1 6.5t-2.5 7.5t-2 7.5t2.5 8.5q-1 30 8.5 55.5t25.5 48t37 42t43 36.5q4 0 9 1.5t10 1.5t8.5 -2t4.5 -9zM974 480q-3 -8 -9 -15.5t-15 -9.5q-8 2 -11.5 6.5t-8.5 10.5l2 14
q5 -2 4.5 -8t6.5 -8q5 -2 9.5 3t6.5 8q4 23 0.5 45t-15.5 42l-6 -3q-12 -11 -22.5 -20.5t-17.5 -24.5l-8 -4q-14 -14 -24 -29.5t-22 -26.5q-6 -1 -8.5 1.5t-4 6.5t-2 9t-2.5 8q4 10 -3 17q-6 1 -6.5 -3.5t-3.5 -6.5q-8 -8 -14.5 -11.5t-17.5 -4.5q-11 3 -14 9t-1.5 13.5
t4 16.5t2.5 17q4 15 13 26.5t20 23.5q10 2 22 6t20 -8l4 -6q-6 -17 -7.5 -35.5t-3.5 -36.5q1 -3 2.5 -6.5t5.5 -3.5q11 0 13.5 9t9.5 15q22 19 41 38.5t37 39.5q6 -2 8.5 -7.5t3 -11.5t1 -12.5t3.5 -10.5q5 -2 3 -8q8 -15 7.5 -31t-2.5 -33zM1064 581q-2 29 -16 58t-44 43
q6 9 12.5 8t12.5 -6t11 -12.5t9 -11.5q16 -19 23 -41.5t7.5 -46.5t-5 -48t-14.5 -46q-14 -34 -41 -63.5t-63 -44.5q14 10 26.5 21.5t21.5 26.5q16 16 30 35t18 45q12 20 13 41t-1 42zM731 209q-18 -3 -35 -8l-34 -10t-34 -8.5t-35 -1.5q-3 -3 -5 -11t-0.5 -16t5.5 -13t13 -2
q3 4 4.5 11.5t7.5 9.5q5 -9 1.5 -17.5t-9.5 -15.5q-3 -2 -10.5 -2.5t-14.5 4t-11.5 15.5t-1.5 32q-2 3 -4.5 6t-0.5 8q11 8 12 20.5t3 25.5q-2 1 -2 2t-2 2q-17 -11 -26 -29t-22 -32q0 -7 -4 -12.5t-8.5 -11t-8 -11.5t-1.5 -14q-3 -3 -3.5 -8t-1 -9.5t-2.5 -8t-9 -4.5
q-9 2 -12 7.5t-3 11.5q0 7 1 14t0 13q-3 19 1 35t1 33q-9 -5 -11.5 -14t-9.5 -17q-5 -6 -9.5 -14t-9.5 -15t-12.5 -10.5t-17.5 -1.5q-11 17 -4 36t17 36q4 5 9 11.5t10.5 11.5t12.5 7.5t15 -0.5q5 -3 10 0q9 21 13.5 44t6.5 46l10 8q6 -2 7 -5t-0.5 -7l-3 -8t-0.5 -8
q-4 -28 -9.5 -55.5t-7.5 -54.5q-1 -15 -4 -29t2 -29q16 21 30 46t36 46q6 8 14 16t18 14q8 -6 15 -14.5t15 -13.5q0 -9 -1 -20t1 -20q27 6 51.5 10t50.5 12q8 -5 7 -13zM408 -10q-1 -38 1.5 -76t0.5 -74.5t-13.5 -69.5t-39.5 -61q-32 -20 -70.5 -24.5t-74.5 5.5q-4 2 -8 5.5
t-4 8.5q2 10 6 20t16 14q-3 -8 -6.5 -16t-5.5 -17q13 -8 29 -11t33.5 -2t34 6t29.5 12q14 5 22.5 14t13.5 20t9 22.5t9 22.5q6 35 7 75.5t-1 70.5q4 11 1 24t-1 24q-2 5 -6 3.5t-6 -2.5q-8 -8 -11 -17.5t-11 -15.5q1 -8 -2 -12t-7.5 -7.5t-8.5 -7.5t-4 -11
q-20 -23 -37.5 -46.5t-34.5 -47.5q-4 -6 -7 -12t-11 -5q-5 7 -5.5 14.5t0 15t1.5 15.5t0 16q5 17 9 35t17 35q9 24 25.5 47.5t40.5 38.5q14 4 24.5 -2.5t21.5 -13.5q8 10 12 24q12 -5 12 -20q-5 -5 -1.5 -8.5t1.5 -8.5zM541 -55q-4 -3 -8 -1.5t-8 3.5t-8.5 3.5t-8.5 -1.5
q-7 -5 -10 -11t-4.5 -12.5t-3.5 -13t-6 -11.5q-2 -14 -5 -26.5t-3 -25.5l-6 -4t-8 0q-6 8 -3 18t2 18q7 9 5.5 21.5t3.5 22.5q-3 5 -2.5 12.5t-1.5 12.5q-5 2 -7.5 -2t-7.5 1q2 10 14 18q8 0 12 -6t7 -12q4 1 7.5 5.5t7 8t8 4.5t9.5 -4l25 -18v0zM947 -35q-5 -6 -11.5 -8
t-13.5 -3l-14 -2t-12 -5q-17 -2 -32 -6.5t-22 -21.5q-4 -10 -9.5 -19.5t-10.5 -19.5t-8 -20.5t0 -22.5q2 -9 11 -8.5t15 2.5q4 0 6.5 4.5t7.5 1.5t1 -6t-6 -7q-8 -5 -18 -7.5t-20 2.5q-8 8 -12 16.5t-1 19.5q2 8 8.5 24t26.5 50q-8 4 -16 3t-15.5 -2.5t-15.5 -2.5t-16 2
q5 6 12.5 9t14.5 5q13 3 27.5 2t22.5 12q7 11 5 22.5t0 23.5q-5 2 -5 6v6q-6 11 -15 17t-19.5 8.5t-21.5 3t-21 0.5q-23 -2 -42.5 -17t-27.5 -35q-7 -16 -5.5 -32t8.5 -33q-2 -12 2.5 -23t10 -21.5t8 -22.5t-3.5 -25q-5 -5 -12.5 -4t-13.5 3q-14 7 -15.5 22t-6.5 28
q8 6 7 16.5t5 18.5q2 5 1 13t-8 11q-17 -2 -38 -2q-20 0 -34 -12q1 -11 2.5 -22t1 -22t-4.5 -21t-14 -17q-11 -3 -24 4q-11 9 -9.5 21.5t1.5 24.5q8 15 15.5 31.5t24.5 22.5q8 -5 16.5 -3t16.5 4l49 1q5 5 4.5 12.5t1.5 13.5q9 29 31.5 51.5t54.5 24.5q17 2 33 1t31 -9
q1 -5 4 -8t7 -5t7.5 -5t4.5 -8q9 -14 6.5 -33t-5.5 -35q23 0 45 4t42 8z" />
    </font>
</defs>
</svg>
